<svg width="538" height="541" viewBox="0 0 538 541" fill="none" xmlns="http://www.w3.org/2000/svg">
<path fill-rule="evenodd" clip-rule="evenodd" d="M254.096 0.141754L212.408 265.892L254.096 304.095V0.141754Z" fill="#0B2641"/>
<path fill-rule="evenodd" clip-rule="evenodd" d="M253.906 531.807L295.594 342.125L253.906 304.095V531.807Z" fill="#0B2641"/>
<path fill-rule="evenodd" clip-rule="evenodd" d="M5.05957 303.921L212.408 342.125L254.096 303.921H5.05957Z" fill="#0B2641"/>
<path fill-rule="evenodd" clip-rule="evenodd" d="M502.57 303.921L295.594 342.125L253.906 303.921H502.57Z" fill="white"/>
<path fill-rule="evenodd" clip-rule="evenodd" d="M253.906 532.142L212.408 342.125L254.096 303.921L253.906 532.142Z" fill="white"/>
<path fill-rule="evenodd" clip-rule="evenodd" d="M5.05957 303.921L212.408 265.892L254.272 304.256L5.05957 303.921Z" fill="white"/>
<path fill-rule="evenodd" clip-rule="evenodd" d="M129.574 189.98L171.086 273.425L212.408 266.227L129.574 189.98Z" fill="#0B2641"/>
<path fill-rule="evenodd" clip-rule="evenodd" d="M129.574 189.98L218.435 228.023L212.408 266.227L129.574 189.98Z" fill="white"/>
<path fill-rule="evenodd" clip-rule="evenodd" d="M129.574 418.033L170.721 334.591L212.408 342.125L129.574 418.033Z" fill="white"/>
<path fill-rule="evenodd" clip-rule="evenodd" d="M129.391 418.033L220.453 379.323L212.408 342.125L129.391 418.033Z" fill="#0B2641"/>
<path fill-rule="evenodd" clip-rule="evenodd" d="M378.428 418.033L337.281 334.591L295.594 342.125L378.428 418.033Z" fill="#0B2641"/>
<path fill-rule="evenodd" clip-rule="evenodd" d="M378.428 418.033L287.373 379.323L295.418 342.125L378.428 418.033Z" fill="white"/>
<path d="M306.737 200.356H300.554C300.188 198.726 299.548 197.294 298.634 196.06C297.736 194.826 296.639 193.79 295.343 192.953C294.063 192.1 292.642 191.46 291.079 191.033C289.517 190.607 287.888 190.393 286.192 190.393C283.101 190.393 280.3 191.109 277.79 192.541C275.297 193.973 273.31 196.083 271.831 198.87C270.368 201.658 269.637 205.078 269.637 209.13C269.637 213.182 270.368 216.601 271.831 219.389C273.31 222.176 275.297 224.286 277.79 225.718C280.3 227.15 283.101 227.866 286.192 227.866C287.888 227.866 289.517 227.653 291.079 227.226C292.642 226.8 294.063 226.167 295.343 225.33C296.639 224.477 297.736 223.433 298.634 222.199C299.548 220.95 300.188 219.518 300.554 217.904H306.737C306.272 220.295 305.424 222.435 304.194 224.324C302.964 226.213 301.435 227.82 299.606 229.145C297.778 230.455 295.725 231.453 293.448 232.139C291.187 232.824 288.769 233.167 286.192 233.167C281.837 233.167 277.964 232.192 274.574 230.242C271.183 228.292 268.515 225.52 266.57 221.925C264.625 218.33 263.653 214.065 263.653 209.13C263.653 204.194 264.625 199.929 266.57 196.334C268.515 192.739 271.183 189.967 274.574 188.017C277.964 186.067 281.837 185.092 286.192 185.092C288.769 185.092 291.187 185.435 293.448 186.121C295.725 186.806 297.778 187.812 299.606 189.137C301.435 190.447 302.964 192.046 304.194 193.935C305.424 195.809 306.272 197.949 306.737 200.356Z" fill="#0B2641"/>
<path d="M327.201 233.35C324.774 233.35 322.571 232.931 320.593 232.093C318.615 231.24 317.045 230.014 315.881 228.414C314.718 226.8 314.136 224.85 314.136 222.565C314.136 220.554 314.568 218.924 315.432 217.675C316.297 216.411 317.452 215.421 318.898 214.705C320.344 213.989 321.94 213.456 323.685 213.105C325.447 212.74 327.217 212.45 328.996 212.237C331.323 211.963 333.209 211.757 334.656 211.62C336.118 211.468 337.182 211.217 337.847 210.866C338.528 210.516 338.869 209.907 338.869 209.038V208.855C338.869 206.601 338.196 204.849 336.85 203.6C335.52 202.351 333.5 201.727 330.791 201.727C327.982 201.727 325.779 202.29 324.184 203.417C322.588 204.545 321.466 205.748 320.818 207.028L315.233 205.2C316.23 203.067 317.56 201.407 319.222 200.219C320.901 199.015 322.729 198.177 324.707 197.705C326.702 197.218 328.663 196.974 330.591 196.974C331.822 196.974 333.234 197.111 334.83 197.385C336.442 197.644 337.997 198.185 339.493 199.008C341.005 199.83 342.26 201.072 343.257 202.732C344.255 204.392 344.753 206.616 344.753 209.404V232.527H338.869V227.775H338.57C338.171 228.536 337.506 229.351 336.575 230.219C335.645 231.088 334.406 231.826 332.86 232.436C331.315 233.045 329.428 233.35 327.201 233.35ZM328.098 228.506C330.425 228.506 332.387 228.087 333.982 227.249C335.595 226.411 336.808 225.33 337.623 224.004C338.454 222.679 338.869 221.285 338.869 219.823V214.888C338.62 215.162 338.071 215.413 337.224 215.642C336.393 215.855 335.429 216.045 334.331 216.213C333.251 216.365 332.196 216.502 331.165 216.624C330.151 216.731 329.328 216.822 328.697 216.898C327.167 217.081 325.738 217.378 324.408 217.789C323.095 218.186 322.031 218.787 321.217 219.595C320.419 220.387 320.02 221.468 320.02 222.839C320.02 224.713 320.776 226.129 322.289 227.089C323.818 228.033 325.755 228.506 328.098 228.506Z" fill="#0B2641"/>
<path d="M355.493 245.688V197.431H361.178V203.006H361.876C362.308 202.397 362.907 201.62 363.671 200.676C364.452 199.716 365.566 198.863 367.012 198.116C368.475 197.355 370.453 196.974 372.946 196.974C376.171 196.974 379.013 197.713 381.473 199.19C383.933 200.668 385.853 202.762 387.233 205.474C388.612 208.185 389.302 211.384 389.302 215.07C389.302 218.787 388.612 222.009 387.233 224.736C385.853 227.447 383.942 229.549 381.498 231.042C379.055 232.519 376.237 233.258 373.046 233.258C370.586 233.258 368.616 232.885 367.137 232.139C365.657 231.377 364.519 230.516 363.721 229.557C362.923 228.582 362.308 227.775 361.876 227.135H361.377V245.688H355.493ZM361.278 214.979C361.278 217.63 361.701 219.968 362.549 221.994C363.397 224.004 364.635 225.581 366.264 226.723C367.893 227.851 369.888 228.414 372.248 228.414C374.708 228.414 376.761 227.82 378.406 226.632C380.069 225.429 381.315 223.814 382.146 221.788C382.994 219.747 383.418 217.477 383.418 214.979C383.418 212.511 383.002 210.287 382.171 208.307C381.357 206.312 380.119 204.735 378.456 203.577C376.811 202.404 374.741 201.818 372.248 201.818C369.855 201.818 367.843 202.374 366.214 203.486C364.585 204.583 363.355 206.121 362.524 208.101C361.693 210.066 361.278 212.359 361.278 214.979Z" fill="#0B2641"/>
<path d="M403.464 185.732V189.845C403.464 191.094 403.215 192.427 402.716 193.844C402.234 195.245 401.519 196.608 400.572 197.934C399.641 199.244 398.511 200.386 397.181 201.361L393.99 198.985C395.037 197.614 395.943 196.189 396.707 194.712C397.488 193.219 397.879 191.627 397.879 189.936V185.732H403.464Z" fill="#0B2641"/>
<path d="M428.92 197.431V202.001H409.074V197.431H428.92ZM414.858 189.022H420.742V222.474C420.742 223.997 420.983 225.139 421.465 225.901C421.964 226.647 422.596 227.15 423.36 227.409C424.142 227.653 424.964 227.775 425.829 227.775C426.477 227.775 427.009 227.744 427.424 227.683C427.84 227.607 428.172 227.546 428.422 227.5L429.619 232.344C429.22 232.481 428.663 232.619 427.948 232.756C427.233 232.908 426.327 232.984 425.23 232.984C423.568 232.984 421.939 232.657 420.344 232.002C418.764 231.347 417.451 230.349 416.404 229.008C415.374 227.668 414.858 225.977 414.858 223.936V189.022Z" fill="#0B2641"/>
<path d="M449.041 233.35C446.614 233.35 444.412 232.931 442.434 232.093C440.456 231.24 438.885 230.014 437.722 228.414C436.558 226.8 435.976 224.85 435.976 222.565C435.976 220.554 436.409 218.924 437.273 217.675C438.137 216.411 439.293 215.421 440.739 214.705C442.185 213.989 443.78 213.456 445.526 213.105C447.288 212.74 449.058 212.45 450.836 212.237C453.163 211.963 455.05 211.757 456.496 211.62C457.959 211.468 459.023 211.217 459.688 210.866C460.369 210.516 460.71 209.907 460.71 209.038V208.855C460.71 206.601 460.037 204.849 458.69 203.6C457.36 202.351 455.341 201.727 452.632 201.727C449.822 201.727 447.62 202.29 446.024 203.417C444.429 204.545 443.307 205.748 442.658 207.028L437.073 205.2C438.071 203.067 439.401 201.407 441.063 200.219C442.742 199.015 444.57 198.177 446.548 197.705C448.543 197.218 450.504 196.974 452.432 196.974C453.662 196.974 455.075 197.111 456.671 197.385C458.283 197.644 459.837 198.185 461.333 199.008C462.846 199.83 464.101 201.072 465.098 202.732C466.095 204.392 466.594 206.616 466.594 209.404V232.527H460.71V227.775H460.411C460.012 228.536 459.347 229.351 458.416 230.219C457.485 231.088 456.247 231.826 454.701 232.436C453.155 233.045 451.269 233.35 449.041 233.35ZM449.939 228.506C452.266 228.506 454.227 228.087 455.823 227.249C457.435 226.411 458.649 225.33 459.463 224.004C460.294 222.679 460.71 221.285 460.71 219.823V214.888C460.461 215.162 459.912 215.413 459.064 215.642C458.233 215.855 457.269 216.045 456.172 216.213C455.092 216.365 454.036 216.502 453.006 216.624C451.992 216.731 451.169 216.822 450.537 216.898C449.008 217.081 447.579 217.378 446.249 217.789C444.936 218.186 443.872 218.787 443.057 219.595C442.259 220.387 441.861 221.468 441.861 222.839C441.861 224.713 442.617 226.129 444.129 227.089C445.659 228.033 447.595 228.506 449.939 228.506Z" fill="#0B2641"/>
<path d="M477.334 232.527V197.431H483.218V232.527H477.334ZM480.326 191.582C479.179 191.582 478.19 191.224 477.359 190.508C476.544 189.792 476.137 188.931 476.137 187.926C476.137 186.92 476.544 186.06 477.359 185.344C478.19 184.628 479.179 184.27 480.326 184.27C481.473 184.27 482.453 184.628 483.268 185.344C484.099 186.06 484.514 186.92 484.514 187.926C484.514 188.931 484.099 189.792 483.268 190.508C482.453 191.224 481.473 191.582 480.326 191.582Z" fill="#0B2641"/>
<path d="M499.879 211.415V232.527H493.995V197.431H499.68V202.915H500.179C501.076 201.133 502.439 199.701 504.268 198.619C506.096 197.522 508.456 196.974 511.348 196.974C513.941 196.974 516.21 197.461 518.155 198.436C520.1 199.396 521.612 200.858 522.693 202.823C523.773 204.773 524.314 207.241 524.314 210.226V232.527H518.429V210.592C518.429 207.835 517.648 205.687 516.086 204.149C514.523 202.595 512.379 201.818 509.653 201.818C507.775 201.818 506.096 202.191 504.617 202.938C503.154 203.684 501.999 204.773 501.151 206.205C500.303 207.637 499.879 209.373 499.879 211.415Z" fill="#0B2641"/>
<path d="M306.278 261.111H300.092C299.726 259.481 299.085 258.048 298.171 256.814C297.273 255.579 296.175 254.543 294.878 253.705C293.597 252.851 292.176 252.211 290.612 251.784C289.049 251.358 287.419 251.144 285.723 251.144C282.63 251.144 279.828 251.861 277.316 253.293C274.822 254.726 272.835 256.837 271.355 259.626C269.891 262.414 269.159 265.836 269.159 269.89C269.159 273.944 269.891 277.365 271.355 280.154C272.835 282.943 274.822 285.054 277.316 286.487C279.828 287.919 282.63 288.635 285.723 288.635C287.419 288.635 289.049 288.422 290.612 287.995C292.176 287.569 293.597 286.936 294.878 286.098C296.175 285.244 297.273 284.201 298.171 282.966C299.085 281.716 299.726 280.284 300.092 278.668H306.278C305.812 281.061 304.964 283.202 303.734 285.092C302.503 286.982 300.973 288.59 299.144 289.916C297.314 291.226 295.26 292.225 292.982 292.91C290.72 293.596 288.301 293.939 285.723 293.939C281.366 293.939 277.491 292.964 274.099 291.013C270.706 289.062 268.037 286.288 266.091 282.692C264.145 279.095 263.172 274.828 263.172 269.89C263.172 264.952 264.145 260.685 266.091 257.088C268.037 253.491 270.706 250.718 274.099 248.767C277.491 246.816 281.366 245.841 285.723 245.841C288.301 245.841 290.72 246.184 292.982 246.869C295.26 247.555 297.314 248.561 299.144 249.887C300.973 251.198 302.503 252.798 303.734 254.688C304.964 256.562 305.812 258.703 306.278 261.111Z" fill="#0B2641"/>
<path d="M331.042 294.031C327.583 294.031 324.548 293.276 321.937 291.767C319.343 290.259 317.314 288.148 315.851 285.435C314.404 282.722 313.681 279.552 313.681 275.925C313.681 272.267 314.404 269.075 315.851 266.346C317.314 263.618 319.343 261.5 321.937 259.991C324.548 258.483 327.583 257.728 331.042 257.728C334.502 257.728 337.528 258.483 340.123 259.991C342.733 261.5 344.762 263.618 346.209 266.346C347.673 269.075 348.404 272.267 348.404 275.925C348.404 279.552 347.673 282.722 346.209 285.435C344.762 288.148 342.733 290.259 340.123 291.767C337.528 293.276 334.502 294.031 331.042 294.031ZM331.042 289.184C333.67 289.184 335.832 288.567 337.528 287.332C339.225 286.098 340.48 284.475 341.295 282.463C342.11 280.451 342.517 278.272 342.517 275.925C342.517 273.578 342.11 271.391 341.295 269.364C340.48 267.337 339.225 265.699 337.528 264.449C335.832 263.199 333.67 262.575 331.042 262.575C328.415 262.575 326.253 263.199 324.557 264.449C322.86 265.699 321.605 267.337 320.79 269.364C319.975 271.391 319.568 273.578 319.568 275.925C319.568 278.272 319.975 280.451 320.79 282.463C321.605 284.475 322.86 286.098 324.557 287.332C326.253 288.567 328.415 289.184 331.042 289.184Z" fill="#0B2641"/>
<path d="M363.278 272.176V293.299H357.391V258.185H363.078V263.672H363.577C364.475 261.889 365.839 260.456 367.668 259.374C369.498 258.277 371.859 257.728 374.753 257.728C377.347 257.728 379.617 258.216 381.563 259.191C383.509 260.151 385.022 261.614 386.103 263.58C387.184 265.531 387.724 268 387.724 270.987V293.299H381.837V271.353C381.837 268.594 381.056 266.446 379.493 264.906C377.929 263.352 375.784 262.575 373.057 262.575C371.177 262.575 369.498 262.948 368.018 263.695C366.554 264.441 365.398 265.531 364.55 266.964C363.702 268.396 363.278 270.134 363.278 272.176Z" fill="#0B2641"/>
<path d="M404.369 272.176V293.299H398.482V258.185H404.17V263.672H404.669C405.567 261.889 406.93 260.456 408.76 259.374C410.589 258.277 412.95 257.728 415.844 257.728C418.438 257.728 420.708 258.216 422.654 259.191C424.6 260.151 426.113 261.614 427.194 263.58C428.275 265.531 428.816 268 428.816 270.987V293.299H422.929V271.353C422.929 268.594 422.147 266.446 420.584 264.906C419.02 263.352 416.875 262.575 414.148 262.575C412.269 262.575 410.589 262.948 409.109 263.695C407.645 264.441 406.49 265.531 405.641 266.964C404.793 268.396 404.369 270.134 404.369 272.176Z" fill="#0B2641"/>
<path d="M455.638 294.031C451.946 294.031 448.761 293.284 446.084 291.79C443.423 290.281 441.369 288.178 439.923 285.481C438.492 282.768 437.777 279.613 437.777 276.017C437.777 272.42 438.492 269.25 439.923 266.507C441.369 263.748 443.382 261.599 445.959 260.06C448.554 258.505 451.58 257.728 455.039 257.728C457.035 257.728 459.006 258.033 460.951 258.643C462.897 259.252 464.668 260.243 466.265 261.614C467.861 262.971 469.133 264.769 470.081 267.009C471.029 269.25 471.503 272.008 471.503 275.285V277.571H441.968V272.907H465.516C465.516 270.926 465.084 269.158 464.219 267.604C463.371 266.049 462.157 264.822 460.577 263.923C459.014 263.024 457.168 262.575 455.039 262.575C452.695 262.575 450.666 263.108 448.953 264.175C447.256 265.226 445.951 266.598 445.036 268.29C444.122 269.981 443.664 271.795 443.664 273.73V276.839C443.664 279.491 444.163 281.739 445.161 283.583C446.175 285.412 447.581 286.807 449.377 287.767C451.173 288.712 453.26 289.184 455.638 289.184C457.185 289.184 458.582 288.986 459.829 288.59C461.093 288.178 462.182 287.569 463.097 286.761C464.011 285.938 464.718 284.917 465.217 283.698L470.905 285.161C470.306 286.929 469.3 288.483 467.886 289.824C466.473 291.15 464.726 292.186 462.648 292.933C460.569 293.665 458.232 294.031 455.638 294.031Z" fill="#0B2641"/>
<path d="M496.025 294.031C492.432 294.031 489.339 293.253 486.745 291.699C484.151 290.144 482.155 288.003 480.758 285.275C479.361 282.547 478.663 279.43 478.663 275.925C478.663 272.359 479.378 269.212 480.808 266.484C482.255 263.74 484.267 261.599 486.845 260.06C489.439 258.505 492.466 257.728 495.925 257.728C498.619 257.728 501.047 258.185 503.209 259.1C505.371 260.014 507.142 261.294 508.522 262.94C509.902 264.586 510.759 266.507 511.092 268.701H505.204C504.755 267.101 503.758 265.684 502.211 264.449C500.681 263.199 498.619 262.575 496.025 262.575C493.73 262.575 491.717 263.123 489.988 264.22C488.275 265.303 486.936 266.834 485.972 268.815C485.024 270.781 484.55 273.09 484.55 275.742C484.55 278.455 485.015 280.817 485.947 282.829C486.895 284.841 488.225 286.403 489.938 287.515C491.667 288.628 493.696 289.184 496.025 289.184C497.555 289.184 498.943 288.94 500.19 288.453C501.438 287.965 502.494 287.264 503.358 286.349C504.223 285.435 504.839 284.338 505.204 283.058H511.092C510.759 285.13 509.936 286.997 508.622 288.658C507.325 290.304 505.604 291.615 503.458 292.59C501.33 293.55 498.852 294.031 496.025 294.031Z" fill="#0B2641"/>
<path d="M536.361 258.185V262.757H516.505V258.185H536.361ZM522.292 249.773H528.179V283.24C528.179 284.764 528.42 285.907 528.902 286.669C529.401 287.416 530.033 287.919 530.798 288.178C531.58 288.422 532.403 288.544 533.268 288.544C533.916 288.544 534.449 288.514 534.864 288.453C535.28 288.376 535.613 288.315 535.862 288.27L537.06 293.116C536.66 293.253 536.103 293.39 535.388 293.528C534.673 293.68 533.767 293.756 532.669 293.756C531.006 293.756 529.376 293.429 527.78 292.773C526.2 292.118 524.886 291.12 523.839 289.779C522.808 288.437 522.292 286.746 522.292 284.703V249.773Z" fill="#0B2641"/>
<path d="M254.096 0.141754H255.011L253.192 -4.9331e-06L254.096 0.141754ZM254.096 304.095L253.478 304.77L255.011 306.174V304.095H254.096ZM253.906 531.807H252.991V540.23L254.799 532.003L253.906 531.807ZM253.906 304.095L254.522 303.419L252.991 302.023V304.095H253.906ZM5.05957 303.921L4.89455 303.021L0.000162527 303.919L4.89382 304.821L5.05957 303.921ZM254.096 303.921L255.011 303.922L255.012 303.006H254.096V303.921ZM502.57 303.921L502.736 304.821L502.57 303.006V303.921ZM253.906 303.921V303.006H251.554L253.288 304.595L253.906 303.921ZM253.906 532.142L253.012 532.337L254.814 540.585L254.821 532.143L253.906 532.142ZM254.272 304.256L254.271 305.171L256.627 305.174L254.89 303.582L254.272 304.256ZM129.574 189.98L129.934 189.139L127.647 188.16L128.755 190.388L129.574 189.98ZM171.086 273.425L170.267 273.833L170.571 274.443L171.243 274.326L171.086 273.425ZM212.408 266.227L212.565 267.128L213.21 267.016L213.312 266.369L212.408 266.227ZM218.435 228.023L219.338 228.166L219.449 227.462L218.795 227.182L218.435 228.023ZM129.574 418.033L128.754 417.629L126.597 422.002L130.192 418.708L129.574 418.033ZM170.721 334.591L170.883 333.691L170.205 333.568L169.9 334.187L170.721 334.591ZM129.391 418.033L128.774 417.358L124.827 420.968L129.749 418.875L129.391 418.033ZM220.453 379.323L220.811 380.165L221.507 379.869L221.347 379.13L220.453 379.323ZM378.428 418.033L378.07 418.875L380.339 419.839L379.248 417.629L378.428 418.033ZM337.281 334.591L338.102 334.187L337.797 333.568L337.119 333.691L337.281 334.591ZM287.373 379.323L286.479 379.13L286.319 379.869L287.015 380.165L287.373 379.323ZM295.418 342.125L296.035 341.45L294.861 340.375L294.524 341.931L295.418 342.125ZM306.737 200.356V201.27C307.01 201.27 307.269 201.148 307.443 200.938C307.616 200.727 307.687 200.45 307.635 200.182L306.737 200.356ZM300.554 200.356L299.661 200.556C299.755 200.974 300.126 201.27 300.554 201.27V200.356ZM298.634 196.06L297.894 196.598L297.899 196.605L298.634 196.06ZM295.343 192.953L294.835 193.714L294.846 193.721L295.343 192.953ZM291.079 191.033L290.838 191.916L290.838 191.916L291.079 191.033ZM277.79 192.541L277.337 191.747L277.334 191.748L277.79 192.541ZM271.831 198.87L271.023 198.442L271.021 198.445L271.831 198.87ZM271.831 219.389L271.021 219.814L271.023 219.818L271.831 219.389ZM277.79 225.718L277.334 226.511L277.337 226.513L277.79 225.718ZM291.079 227.226L290.838 226.344L290.838 226.344L291.079 227.226ZM295.343 225.33L295.844 226.095L295.845 226.094L295.343 225.33ZM298.634 222.199L297.896 221.659L297.894 221.661L298.634 222.199ZM300.554 217.904V216.989C300.126 216.989 299.756 217.285 299.662 217.702L300.554 217.904ZM306.737 217.904L307.635 218.078C307.687 217.81 307.617 217.533 307.443 217.322C307.269 217.111 307.01 216.989 306.737 216.989V217.904ZM304.194 224.324L303.427 223.825L303.427 223.825L304.194 224.324ZM299.606 229.145L300.139 229.889L300.143 229.886L299.606 229.145ZM293.448 232.139L293.184 231.263L293.182 231.263L293.448 232.139ZM274.574 230.242L274.118 231.035L274.118 231.035L274.574 230.242ZM266.57 221.925L267.375 221.49L267.375 221.49L266.57 221.925ZM293.448 186.121L293.182 186.996L293.184 186.997L293.448 186.121ZM299.606 189.137L299.069 189.877L299.073 189.88L299.606 189.137ZM304.194 193.935L303.427 194.434L303.429 194.437L304.194 193.935ZM320.593 232.093L320.231 232.933L320.237 232.935L320.593 232.093ZM315.881 228.414L315.139 228.949L315.141 228.952L315.881 228.414ZM315.432 217.675L316.185 218.196L316.187 218.191L315.432 217.675ZM323.685 213.105L323.865 214.002L323.871 214.001L323.685 213.105ZM328.996 212.237L328.889 211.329L328.887 211.329L328.996 212.237ZM334.656 211.62L334.742 212.531L334.75 212.53L334.656 211.62ZM337.847 210.866L337.429 210.053L337.421 210.057L337.847 210.866ZM336.85 203.6L336.223 204.267L336.228 204.271L336.85 203.6ZM324.184 203.417L324.712 204.165L324.712 204.165L324.184 203.417ZM320.818 207.028L320.533 207.897C320.962 208.037 321.43 207.844 321.634 207.441L320.818 207.028ZM315.233 205.2L314.404 204.812C314.293 205.049 314.289 205.323 314.393 205.563C314.497 205.803 314.699 205.988 314.948 206.069L315.233 205.2ZM319.222 200.219L319.754 200.963L319.755 200.962L319.222 200.219ZM324.707 197.705L324.92 198.595L324.925 198.594L324.707 197.705ZM334.83 197.385L334.675 198.287L334.685 198.288L334.83 197.385ZM339.493 199.008L339.052 199.809L339.056 199.811L339.493 199.008ZM343.257 202.732L342.473 203.203L342.473 203.203L343.257 202.732ZM344.753 232.527V233.442C345.259 233.442 345.668 233.032 345.668 232.527H344.753ZM338.869 232.527H337.954C337.954 233.032 338.364 233.442 338.869 233.442V232.527ZM338.869 227.775H339.784C339.784 227.269 339.374 226.86 338.869 226.86V227.775ZM338.57 227.775V226.86C338.23 226.86 337.918 227.049 337.76 227.35L338.57 227.775ZM336.575 230.219L337.199 230.888L337.199 230.888L336.575 230.219ZM332.86 232.436L332.525 231.585L332.525 231.585L332.86 232.436ZM333.982 227.249L333.561 226.437L333.557 226.439L333.982 227.249ZM337.623 224.004L336.848 223.518L336.843 223.525L337.623 224.004ZM338.869 214.888H339.784C339.784 214.51 339.552 214.171 339.199 214.034C338.847 213.898 338.447 213.993 338.192 214.272L338.869 214.888ZM337.224 215.642L337.451 216.528L337.462 216.525L337.224 215.642ZM334.331 216.213L334.459 217.119L334.47 217.117L334.331 216.213ZM331.165 216.624L331.261 217.534L331.272 217.533L331.165 216.624ZM328.697 216.898L328.805 217.807L328.806 217.807L328.697 216.898ZM324.408 217.789L324.672 218.665L324.678 218.663L324.408 217.789ZM321.217 219.595L320.573 218.945L320.572 218.945L321.217 219.595ZM322.289 227.089L321.799 227.861L321.808 227.867L322.289 227.089ZM355.493 245.688H354.578C354.578 246.193 354.988 246.603 355.493 246.603V245.688ZM355.493 197.431V196.516C354.988 196.516 354.578 196.926 354.578 197.431H355.493ZM361.178 197.431H362.093C362.093 196.926 361.683 196.516 361.178 196.516V197.431ZM361.178 203.006H360.263C360.263 203.511 360.673 203.921 361.178 203.921V203.006ZM361.876 203.006V203.921C362.172 203.921 362.451 203.777 362.622 203.535L361.876 203.006ZM363.671 200.676L362.962 200.098L362.96 200.1L363.671 200.676ZM367.012 198.116L367.432 198.929L367.435 198.928L367.012 198.116ZM381.473 199.19L381.944 198.406L381.944 198.406L381.473 199.19ZM387.233 205.474L388.048 205.059L388.048 205.059L387.233 205.474ZM387.233 224.736L388.048 225.15L388.049 225.149L387.233 224.736ZM381.498 231.042L381.971 231.825L381.975 231.823L381.498 231.042ZM367.137 232.139L366.718 232.952L366.725 232.955L367.137 232.139ZM363.721 229.557L363.013 230.136L363.018 230.142L363.721 229.557ZM361.876 227.135L362.634 226.623C362.464 226.371 362.18 226.22 361.876 226.22V227.135ZM361.377 227.135V226.22C360.872 226.22 360.463 226.63 360.463 227.135H361.377ZM361.377 245.688V246.603C361.883 246.603 362.292 246.193 362.292 245.688H361.377ZM362.549 221.994L361.705 222.347L361.706 222.349L362.549 221.994ZM366.264 226.723L365.739 227.472L365.744 227.476L366.264 226.723ZM378.406 226.632L378.942 227.374L378.943 227.373L378.406 226.632ZM382.146 221.788L381.302 221.437L381.3 221.441L382.146 221.788ZM382.171 208.307L381.324 208.653L381.328 208.661L382.171 208.307ZM378.456 203.577L377.925 204.322L377.934 204.328L378.456 203.577ZM366.214 203.486L366.725 204.245L366.73 204.241L366.214 203.486ZM362.524 208.101L363.367 208.458L363.368 208.455L362.524 208.101ZM403.464 185.732H404.379C404.379 185.227 403.969 184.817 403.464 184.817V185.732ZM402.716 193.844L401.853 193.54L401.851 193.546L402.716 193.844ZM400.572 197.934L399.828 197.402L399.826 197.404L400.572 197.934ZM397.181 201.361L396.635 202.095C396.957 202.335 397.398 202.336 397.722 202.099L397.181 201.361ZM393.99 198.985L393.263 198.429C393.114 198.624 393.05 198.869 393.084 199.112C393.118 199.354 393.247 199.572 393.443 199.718L393.99 198.985ZM396.707 194.712L395.897 194.288L395.895 194.292L396.707 194.712ZM397.879 185.732V184.817C397.374 184.817 396.964 185.227 396.964 185.732H397.879ZM428.92 197.431H429.835C429.835 196.926 429.426 196.516 428.92 196.516V197.431ZM428.92 202.001V202.915C429.426 202.915 429.835 202.506 429.835 202.001H428.92ZM409.074 202.001H408.159C408.159 202.506 408.569 202.915 409.074 202.915V202.001ZM409.074 197.431V196.516C408.569 196.516 408.159 196.926 408.159 197.431H409.074ZM414.858 189.022V188.108C414.353 188.108 413.944 188.517 413.944 189.022H414.858ZM420.742 189.022H421.657C421.657 188.517 421.248 188.108 420.742 188.108V189.022ZM421.465 225.901L420.693 226.39C420.697 226.396 420.701 226.403 420.705 226.409L421.465 225.901ZM423.36 227.409L423.067 228.275C423.074 228.278 423.081 228.28 423.088 228.282L423.36 227.409ZM427.424 227.683L427.557 228.588C427.568 228.587 427.579 228.585 427.589 228.583L427.424 227.683ZM428.422 227.5L429.31 227.281C429.194 226.811 428.733 226.513 428.257 226.601L428.422 227.5ZM429.619 232.344L429.916 233.209C430.364 233.055 430.62 232.585 430.507 232.125L429.619 232.344ZM427.948 232.756L427.776 231.857C427.77 231.858 427.763 231.86 427.757 231.861L427.948 232.756ZM420.344 232.002L419.993 232.847L419.996 232.848L420.344 232.002ZM416.404 229.008L415.679 229.566L415.683 229.571L416.404 229.008ZM442.434 232.093L442.072 232.933L442.077 232.935L442.434 232.093ZM437.722 228.414L436.98 228.949L436.982 228.952L437.722 228.414ZM437.273 217.675L438.025 218.196L438.028 218.191L437.273 217.675ZM445.526 213.105L445.706 214.002L445.712 214.001L445.526 213.105ZM450.836 212.237L450.729 211.329L450.728 211.329L450.836 212.237ZM456.496 211.62L456.582 212.531L456.591 212.53L456.496 211.62ZM459.688 210.866L459.269 210.053L459.261 210.057L459.688 210.866ZM458.69 203.6L458.064 204.267L458.068 204.271L458.69 203.6ZM446.024 203.417L446.552 204.165L446.552 204.165L446.024 203.417ZM442.658 207.028L442.374 207.897C442.803 208.037 443.27 207.844 443.474 207.441L442.658 207.028ZM437.073 205.2L436.245 204.812C436.134 205.049 436.13 205.323 436.234 205.563C436.338 205.803 436.54 205.988 436.789 206.069L437.073 205.2ZM441.063 200.219L441.595 200.963L441.596 200.962L441.063 200.219ZM446.548 197.705L446.76 198.595L446.765 198.594L446.548 197.705ZM456.671 197.385L456.516 198.287L456.526 198.288L456.671 197.385ZM461.333 199.008L460.892 199.809L460.896 199.811L461.333 199.008ZM465.098 202.732L464.314 203.203L464.314 203.203L465.098 202.732ZM466.594 232.527V233.442C467.099 233.442 467.509 233.032 467.509 232.527H466.594ZM460.71 232.527H459.795C459.795 233.032 460.205 233.442 460.71 233.442V232.527ZM460.71 227.775H461.625C461.625 227.269 461.215 226.86 460.71 226.86V227.775ZM460.411 227.775V226.86C460.07 226.86 459.758 227.049 459.6 227.35L460.411 227.775ZM458.416 230.219L459.04 230.888L459.04 230.888L458.416 230.219ZM454.701 232.436L454.366 231.585L454.366 231.585L454.701 232.436ZM455.823 227.249L455.401 226.437L455.398 226.439L455.823 227.249ZM459.463 224.004L458.688 223.518L458.684 223.525L459.463 224.004ZM460.71 214.888H461.625C461.625 214.51 461.392 214.171 461.04 214.034C460.687 213.898 460.287 213.993 460.033 214.272L460.71 214.888ZM459.064 215.642L459.292 216.528L459.302 216.525L459.064 215.642ZM456.172 216.213L456.3 217.119L456.31 217.117L456.172 216.213ZM453.006 216.624L453.101 217.534L453.113 217.533L453.006 216.624ZM450.537 216.898L450.646 217.807L450.647 217.807L450.537 216.898ZM446.249 217.789L446.513 218.665L446.519 218.663L446.249 217.789ZM443.057 219.595L442.413 218.945L442.413 218.945L443.057 219.595ZM444.129 227.089L443.639 227.861L443.649 227.867L444.129 227.089ZM477.334 232.527H476.419C476.419 233.032 476.829 233.442 477.334 233.442V232.527ZM477.334 197.431V196.516C476.829 196.516 476.419 196.926 476.419 197.431H477.334ZM483.218 197.431H484.133C484.133 196.926 483.723 196.516 483.218 196.516V197.431ZM483.218 232.527V233.442C483.723 233.442 484.133 233.032 484.133 232.527H483.218ZM477.359 190.508L476.755 191.195L476.762 191.201L477.359 190.508ZM477.359 185.344L476.762 184.651L476.755 184.657L477.359 185.344ZM483.268 185.344L482.664 186.031L482.671 186.037L483.268 185.344ZM483.268 190.508L482.671 189.815L482.664 189.821L483.268 190.508ZM499.879 232.527V233.442C500.385 233.442 500.794 233.032 500.794 232.527H499.879ZM493.995 232.527H493.08C493.08 233.032 493.49 233.442 493.995 233.442V232.527ZM493.995 197.431V196.516C493.49 196.516 493.08 196.926 493.08 197.431H493.995ZM499.68 197.431H500.595C500.595 196.926 500.185 196.516 499.68 196.516V197.431ZM499.68 202.915H498.765C498.765 203.42 499.175 203.829 499.68 203.829V202.915ZM500.179 202.915V203.829C500.524 203.829 500.84 203.635 500.995 203.326L500.179 202.915ZM504.268 198.619L504.733 199.406L504.738 199.404L504.268 198.619ZM518.155 198.436L517.745 199.254L517.75 199.257L518.155 198.436ZM522.693 202.823L521.891 203.264L521.893 203.267L522.693 202.823ZM524.314 232.527V233.442C524.819 233.442 525.228 233.032 525.228 232.527H524.314ZM518.429 232.527H517.515C517.515 233.032 517.924 233.442 518.429 233.442V232.527ZM516.086 204.149L515.441 204.797L515.444 204.8L516.086 204.149ZM504.617 202.938L504.205 202.121L504.201 202.123L504.617 202.938ZM501.151 206.205L500.364 205.739L500.364 205.739L501.151 206.205ZM306.278 261.111V262.026C306.551 262.026 306.81 261.904 306.984 261.694C307.157 261.483 307.228 261.206 307.176 260.938L306.278 261.111ZM300.092 261.111L299.199 261.312C299.293 261.729 299.664 262.026 300.092 262.026V261.111ZM298.171 256.814L297.431 257.352L297.436 257.358L298.171 256.814ZM294.878 253.705L294.371 254.466L294.382 254.473L294.878 253.705ZM290.612 251.784L290.371 252.667L290.371 252.667L290.612 251.784ZM277.316 253.293L276.863 252.499L276.861 252.5L277.316 253.293ZM271.355 259.626L270.547 259.197L270.545 259.2L271.355 259.626ZM271.355 280.154L270.545 280.579L270.547 280.583L271.355 280.154ZM277.316 286.487L276.861 287.28L276.863 287.281L277.316 286.487ZM290.612 287.995L290.371 287.113L290.371 287.113L290.612 287.995ZM294.878 286.098L295.379 286.863L295.381 286.862L294.878 286.098ZM298.171 282.966L297.433 282.426L297.431 282.428L298.171 282.966ZM300.092 278.668V277.754C299.664 277.754 299.294 278.049 299.199 278.466L300.092 278.668ZM306.278 278.668L307.176 278.843C307.228 278.575 307.158 278.297 306.984 278.087C306.81 277.876 306.551 277.754 306.278 277.754V278.668ZM303.734 285.092L302.967 284.593L302.967 284.593L303.734 285.092ZM299.144 289.916L299.676 290.659L299.68 290.656L299.144 289.916ZM292.982 292.91L292.718 292.034L292.717 292.035L292.982 292.91ZM274.099 291.013L273.643 291.806L273.643 291.806L274.099 291.013ZM266.091 282.692L266.896 282.257L266.896 282.257L266.091 282.692ZM292.982 246.869L292.717 247.745L292.718 247.745L292.982 246.869ZM299.144 249.887L298.607 250.628L298.611 250.631L299.144 249.887ZM303.734 254.688L302.967 255.187L302.969 255.19L303.734 254.688ZM321.937 291.767L321.478 292.558L321.48 292.559L321.937 291.767ZM315.851 285.435L315.044 285.865L315.046 285.869L315.851 285.435ZM315.851 266.346L315.045 265.914L315.043 265.918L315.851 266.346ZM321.937 259.991L321.48 259.199L321.478 259.201L321.937 259.991ZM340.123 259.991L339.663 260.782L339.665 260.783L340.123 259.991ZM346.209 266.346L345.401 266.775L345.403 266.779L346.209 266.346ZM346.209 285.435L345.404 285.001L345.402 285.005L346.209 285.435ZM340.123 291.767L339.665 290.975L339.663 290.977L340.123 291.767ZM337.528 287.332L336.99 286.593L336.99 286.593L337.528 287.332ZM341.295 282.463L342.143 282.807L342.143 282.807L341.295 282.463ZM341.295 269.364L342.144 269.023L342.144 269.023L341.295 269.364ZM337.528 264.449L338.071 263.713L338.071 263.713L337.528 264.449ZM324.557 264.449L324.014 263.713L324.014 263.713L324.557 264.449ZM320.79 269.364L319.941 269.023L319.941 269.023L320.79 269.364ZM320.79 282.463L319.942 282.807L319.942 282.807L320.79 282.463ZM324.557 287.332L325.095 286.593L325.095 286.593L324.557 287.332ZM363.278 293.299V294.214C363.783 294.214 364.193 293.804 364.193 293.299H363.278ZM357.391 293.299H356.476C356.476 293.804 356.886 294.214 357.391 294.214V293.299ZM357.391 258.185V257.271C356.886 257.271 356.476 257.68 356.476 258.185H357.391ZM363.078 258.185H363.993C363.993 257.68 363.584 257.271 363.078 257.271V258.185ZM363.078 263.672H362.164C362.164 264.177 362.573 264.587 363.078 264.587V263.672ZM363.577 263.672V264.587C363.923 264.587 364.239 264.392 364.394 264.083L363.577 263.672ZM367.668 259.374L368.134 260.161L368.139 260.158L367.668 259.374ZM381.563 259.191L381.153 260.009L381.158 260.011L381.563 259.191ZM386.103 263.58L385.301 264.021L385.303 264.024L386.103 263.58ZM387.724 293.299V294.214C388.23 294.214 388.639 293.804 388.639 293.299H387.724ZM381.837 293.299H380.923C380.923 293.804 381.332 294.214 381.837 294.214V293.299ZM379.493 264.906L378.848 265.555L378.851 265.558L379.493 264.906ZM368.018 263.695L367.606 262.878L367.602 262.88L368.018 263.695ZM364.55 266.964L363.763 266.498L363.763 266.498L364.55 266.964ZM404.369 293.299V294.214C404.874 294.214 405.284 293.804 405.284 293.299H404.369ZM398.482 293.299H397.567C397.567 293.804 397.977 294.214 398.482 294.214V293.299ZM398.482 258.185V257.271C397.977 257.271 397.567 257.68 397.567 258.185H398.482ZM404.17 258.185H405.084C405.084 257.68 404.675 257.271 404.17 257.271V258.185ZM404.17 263.672H403.255C403.255 264.177 403.664 264.587 404.17 264.587V263.672ZM404.669 263.672V264.587C405.014 264.587 405.33 264.392 405.486 264.083L404.669 263.672ZM408.76 259.374L409.225 260.161L409.23 260.158L408.76 259.374ZM422.654 259.191L422.244 260.009L422.249 260.011L422.654 259.191ZM427.194 263.58L426.393 264.021L426.394 264.024L427.194 263.58ZM428.816 293.299V294.214C429.321 294.214 429.73 293.804 429.73 293.299H428.816ZM422.929 293.299H422.014C422.014 293.804 422.423 294.214 422.929 294.214V293.299ZM420.584 264.906L419.939 265.555L419.942 265.558L420.584 264.906ZM409.109 263.695L408.697 262.878L408.693 262.88L409.109 263.695ZM405.641 266.964L404.854 266.498L404.854 266.498L405.641 266.964ZM446.084 291.79L445.633 292.586L445.638 292.589L446.084 291.79ZM439.923 285.481L439.113 285.907L439.116 285.913L439.923 285.481ZM439.923 266.507L439.112 266.082L439.111 266.084L439.923 266.507ZM445.959 260.06L446.428 260.845L446.429 260.845L445.959 260.06ZM460.951 258.643L461.225 257.77L461.225 257.77L460.951 258.643ZM466.265 261.614L465.669 262.308L465.673 262.311L466.265 261.614ZM470.081 267.009L470.924 266.653L470.924 266.653L470.081 267.009ZM471.503 277.571V278.486C472.008 278.486 472.418 278.076 472.418 277.571H471.503ZM441.968 277.571H441.053C441.053 278.076 441.463 278.486 441.968 278.486V277.571ZM441.968 272.907V271.993C441.463 271.993 441.053 272.402 441.053 272.907H441.968ZM465.516 272.907V273.822C466.022 273.822 466.431 273.413 466.431 272.907H465.516ZM464.219 267.604L463.416 268.042L463.42 268.049L464.219 267.604ZM460.577 263.923L460.121 264.716L460.125 264.718L460.577 263.923ZM448.953 264.175L449.435 264.952L449.436 264.951L448.953 264.175ZM445.036 268.29L444.232 267.855L444.232 267.855L445.036 268.29ZM445.161 283.583L444.356 284.019L444.361 284.027L445.161 283.583ZM449.377 287.767L448.946 288.574L448.951 288.576L449.377 287.767ZM459.829 288.59L460.106 289.462L460.112 289.46L459.829 288.59ZM463.097 286.761L463.702 287.447L463.709 287.441L463.097 286.761ZM465.217 283.698L465.445 282.812C465.002 282.698 464.544 282.928 464.37 283.351L465.217 283.698ZM470.905 285.161L471.771 285.454C471.853 285.213 471.83 284.949 471.709 284.725C471.588 284.501 471.379 284.338 471.133 284.275L470.905 285.161ZM467.886 289.824L468.512 290.491L468.516 290.488L467.886 289.824ZM462.648 292.933L462.951 293.796L462.957 293.794L462.648 292.933ZM486.745 291.699L486.275 292.483L486.275 292.483L486.745 291.699ZM480.808 266.484L479.999 266.057L479.998 266.059L480.808 266.484ZM486.845 260.06L487.314 260.845L487.315 260.845L486.845 260.06ZM508.522 262.94L509.223 262.353L509.223 262.353L508.522 262.94ZM511.092 268.701V269.616C511.358 269.616 511.611 269.5 511.785 269.298C511.959 269.095 512.036 268.828 511.996 268.564L511.092 268.701ZM505.204 268.701L504.324 268.948C504.434 269.343 504.794 269.616 505.204 269.616V268.701ZM502.211 264.449L501.632 265.158L501.64 265.164L502.211 264.449ZM489.988 264.22L490.476 264.994L490.478 264.993L489.988 264.22ZM485.972 268.815L485.149 268.415L485.148 268.418L485.972 268.815ZM485.947 282.829L485.117 283.213L485.119 283.219L485.947 282.829ZM489.938 287.515L489.44 288.282L489.443 288.285L489.938 287.515ZM500.19 288.453L499.857 287.601L499.857 287.601L500.19 288.453ZM503.358 286.349L504.023 286.978L504.023 286.978L503.358 286.349ZM505.204 283.058V282.143C504.796 282.143 504.437 282.413 504.325 282.806L505.204 283.058ZM511.092 283.058L511.995 283.202C512.037 282.938 511.961 282.668 511.788 282.464C511.614 282.26 511.359 282.143 511.092 282.143V283.058ZM508.622 288.658L507.904 288.091L507.903 288.092L508.622 288.658ZM503.458 292.59L503.834 293.424L503.837 293.423L503.458 292.59ZM536.361 258.185H537.276C537.276 257.68 536.866 257.271 536.361 257.271V258.185ZM536.361 262.757V263.672C536.866 263.672 537.276 263.263 537.276 262.757H536.361ZM516.505 262.757H515.59C515.59 263.263 515.999 263.672 516.505 263.672V262.757ZM516.505 258.185V257.271C515.999 257.271 515.59 257.68 515.59 258.185H516.505ZM522.292 249.773V248.858C521.787 248.858 521.377 249.267 521.377 249.773H522.292ZM528.179 249.773H529.094C529.094 249.267 528.684 248.858 528.179 248.858V249.773ZM528.902 286.669L528.13 287.159C528.134 287.165 528.138 287.171 528.142 287.178L528.902 286.669ZM530.798 288.178L530.505 289.045C530.512 289.047 530.519 289.049 530.526 289.051L530.798 288.178ZM534.864 288.453L534.997 289.358C535.008 289.356 535.019 289.354 535.029 289.352L534.864 288.453ZM535.862 288.27L536.75 288.05C536.634 287.581 536.173 287.283 535.697 287.37L535.862 288.27ZM537.06 293.116L537.357 293.981C537.805 293.827 538.061 293.357 537.948 292.897L537.06 293.116ZM535.388 293.528L535.216 292.629C535.21 292.63 535.204 292.632 535.198 292.633L535.388 293.528ZM527.78 292.773L527.429 293.618L527.433 293.619L527.78 292.773ZM523.839 289.779L523.113 290.336L523.118 290.342L523.839 289.779ZM254.096 0.141754L253.192 -4.9331e-06L211.505 265.75L212.408 265.892L213.312 266.033L255 0.283513L254.096 0.141754ZM212.408 265.892L211.79 266.566L253.478 304.77L254.096 304.095L254.714 303.421L213.026 265.217L212.408 265.892ZM254.096 304.095H255.011V0.141754H254.096H253.181V304.095H254.096ZM253.906 531.807L254.799 532.003L296.487 342.321L295.594 342.125L294.7 341.928L253.013 531.61L253.906 531.807ZM295.594 342.125L296.21 341.449L254.522 303.419L253.906 304.095L253.289 304.771L294.977 342.8L295.594 342.125ZM253.906 304.095H252.991V531.807H253.906H254.821V304.095H253.906ZM5.05957 303.921L4.89382 304.821L212.243 343.024L212.408 342.125L212.574 341.225L5.22532 303.021L5.05957 303.921ZM212.408 342.125L213.026 342.799L254.714 304.595L254.096 303.921L253.478 303.247L211.79 341.45L212.408 342.125ZM254.096 303.921V303.006H5.05957V303.921V304.836H254.096V303.921ZM502.57 303.921L502.404 303.021L295.428 341.225L295.594 342.125L295.76 343.024L502.736 304.821L502.57 303.921ZM295.594 342.125L296.212 341.45L254.524 303.247L253.906 303.921L253.288 304.595L294.976 342.799L295.594 342.125ZM253.906 303.921V304.836H502.57V303.921V303.006H253.906V303.921ZM253.906 532.142L254.8 531.947L213.302 341.929L212.408 342.125L211.515 342.32L253.012 532.337L253.906 532.142ZM254.096 303.921L253.181 303.92L252.991 532.141L253.906 532.142L254.821 532.143L255.011 303.922L254.096 303.921ZM5.05957 303.921L5.22459 304.821L212.573 266.791L212.408 265.892L212.243 264.992L4.89455 303.021L5.05957 303.921ZM212.408 265.892L211.79 266.566L253.654 304.93L254.272 304.256L254.89 303.582L213.026 265.217L212.408 265.892ZM254.272 304.256L254.273 303.341L5.0608 303.006L5.05957 303.921L5.05834 304.836L254.271 305.171L254.272 304.256ZM129.574 189.98L128.755 190.388L170.267 273.833L171.086 273.425L171.905 273.018L130.393 189.573L129.574 189.98ZM171.086 273.425L171.243 274.326L212.565 267.128L212.408 266.227L212.251 265.326L170.929 272.524L171.086 273.425ZM212.408 266.227L213.028 265.554L130.194 189.307L129.574 189.98L128.955 190.653L211.789 266.9L212.408 266.227ZM129.574 189.98L129.214 190.821L218.075 228.864L218.435 228.023L218.795 227.182L129.934 189.139L129.574 189.98ZM218.435 228.023L217.531 227.881L211.505 266.084L212.408 266.227L213.312 266.369L219.338 228.166L218.435 228.023ZM129.574 418.033L130.395 418.438L171.541 334.996L170.721 334.591L169.9 334.187L128.754 417.629L129.574 418.033ZM170.721 334.591L170.558 335.491L212.246 343.025L212.408 342.125L212.571 341.224L170.883 333.691L170.721 334.591ZM212.408 342.125L211.79 341.45L128.956 417.359L129.574 418.033L130.192 418.708L213.026 342.799L212.408 342.125ZM129.391 418.033L129.749 418.875L220.811 380.165L220.453 379.323L220.096 378.481L129.033 417.191L129.391 418.033ZM220.453 379.323L221.347 379.13L213.303 341.931L212.408 342.125L211.514 342.318L219.559 379.516L220.453 379.323ZM212.408 342.125L211.791 341.45L128.774 417.358L129.391 418.033L130.009 418.708L213.026 342.8L212.408 342.125ZM378.428 418.033L379.248 417.629L338.102 334.187L337.281 334.591L336.461 334.996L377.608 418.438L378.428 418.033ZM337.281 334.591L337.119 333.691L295.431 341.224L295.594 342.125L295.756 343.025L337.444 335.491L337.281 334.591ZM295.594 342.125L294.976 342.799L377.81 418.708L378.428 418.033L379.046 417.359L296.212 341.45L295.594 342.125ZM378.428 418.033L378.786 417.191L287.731 378.481L287.373 379.323L287.015 380.165L378.07 418.875L378.428 418.033ZM287.373 379.323L288.267 379.516L296.312 342.318L295.418 342.125L294.524 341.931L286.479 379.13L287.373 379.323ZM295.418 342.125L294.801 342.8L377.811 418.708L378.428 418.033L379.045 417.358L296.035 341.45L295.418 342.125ZM306.737 200.356V199.441H300.554V200.356V201.27H306.737V200.356ZM300.554 200.356L301.446 200.155C301.055 198.412 300.365 196.861 299.369 195.515L298.634 196.06L297.899 196.605C298.731 197.727 299.321 199.039 299.661 200.556L300.554 200.356ZM298.634 196.06L299.374 195.522C298.409 194.196 297.229 193.082 295.839 192.184L295.343 192.953L294.846 193.721C296.049 194.498 297.064 195.456 297.894 196.598L298.634 196.06ZM295.343 192.953L295.85 192.191C294.484 191.281 292.972 190.602 291.32 190.151L291.079 191.033L290.838 191.916C292.311 192.318 293.641 192.918 294.835 193.714L295.343 192.953ZM291.079 191.033L291.32 190.151C289.676 189.702 287.965 189.479 286.192 189.479V190.393V191.308C287.81 191.308 289.358 191.512 290.838 191.916L291.079 191.033ZM286.192 190.393V189.479C282.953 189.479 279.994 190.231 277.337 191.747L277.79 192.541L278.243 193.336C280.605 191.988 283.248 191.308 286.192 191.308V190.393ZM277.79 192.541L277.334 191.748C274.677 193.274 272.575 195.517 271.023 198.442L271.831 198.87L272.639 199.299C274.046 196.649 275.916 194.672 278.246 193.334L277.79 192.541ZM271.831 198.87L271.021 198.445C269.473 201.396 268.722 204.971 268.722 209.13H269.637H270.552C270.552 205.185 271.264 201.92 272.641 199.295L271.831 198.87ZM269.637 209.13H268.722C268.722 213.288 269.473 216.863 271.021 219.814L271.831 219.389L272.641 218.964C271.264 216.34 270.552 213.075 270.552 209.13H269.637ZM271.831 219.389L271.023 219.818C272.575 222.742 274.677 224.985 277.334 226.511L277.79 225.718L278.246 224.925C275.916 223.587 274.046 221.611 272.639 218.96L271.831 219.389ZM277.79 225.718L277.337 226.513C279.994 228.029 282.953 228.781 286.192 228.781V227.866V226.951C283.248 226.951 280.605 226.271 278.243 224.924L277.79 225.718ZM286.192 227.866V228.781C287.965 228.781 289.676 228.558 291.32 228.109L291.079 227.226L290.838 226.344C289.358 226.748 287.81 226.951 286.192 226.951V227.866ZM291.079 227.226L291.32 228.109C292.969 227.658 294.479 226.988 295.844 226.095L295.343 225.33L294.842 224.564C293.646 225.347 292.314 225.941 290.838 226.344L291.079 227.226ZM295.343 225.33L295.845 226.094C297.232 225.181 298.41 224.062 299.374 222.737L298.634 222.199L297.894 221.661C297.062 222.805 296.046 223.772 294.84 224.566L295.343 225.33ZM298.634 222.199L299.372 222.74C300.365 221.383 301.054 219.834 301.446 218.106L300.554 217.904L299.662 217.702C299.322 219.203 298.731 220.518 297.896 221.659L298.634 222.199ZM300.554 217.904V218.818H306.737V217.904V216.989H300.554V217.904ZM306.737 217.904L305.839 217.729C305.394 220.014 304.588 222.043 303.427 223.825L304.194 224.324L304.96 224.823C306.26 222.828 307.149 220.576 307.635 218.078L306.737 217.904ZM304.194 224.324L303.427 223.825C302.259 225.62 300.807 227.145 299.069 228.405L299.606 229.145L300.143 229.886C302.062 228.495 303.669 226.806 304.96 224.823L304.194 224.324ZM299.606 229.145L299.073 228.402C297.331 229.65 295.371 230.605 293.184 231.263L293.448 232.139L293.711 233.015C296.079 232.302 298.224 231.261 300.139 229.889L299.606 229.145ZM293.448 232.139L293.182 231.263C291.015 231.92 288.687 232.252 286.192 232.252V233.167V234.082C288.851 234.082 291.359 233.728 293.713 233.014L293.448 232.139ZM286.192 233.167V232.252C281.979 232.252 278.266 231.31 275.03 229.449L274.574 230.242L274.118 231.035C277.662 233.074 281.696 234.082 286.192 234.082V233.167ZM274.574 230.242L275.03 229.449C271.793 227.588 269.243 224.943 267.375 221.49L266.57 221.925L265.766 222.36C267.787 226.098 270.573 228.997 274.118 231.035L274.574 230.242ZM266.57 221.925L267.375 221.49C265.516 218.054 264.568 213.944 264.568 209.13H263.653H262.738C262.738 214.186 263.735 218.607 265.766 222.36L266.57 221.925ZM263.653 209.13H264.568C264.568 204.315 265.516 200.206 267.375 196.769L266.57 196.334L265.766 195.899C263.735 199.653 262.738 204.074 262.738 209.13H263.653ZM266.57 196.334L267.375 196.769C269.243 193.317 271.793 190.671 275.03 188.81L274.574 188.017L274.118 187.224C270.573 189.262 267.787 192.162 265.766 195.899L266.57 196.334ZM274.574 188.017L275.03 188.81C278.266 186.949 281.979 186.007 286.192 186.007V185.092V184.178C281.696 184.178 277.662 185.186 274.118 187.224L274.574 188.017ZM286.192 185.092V186.007C288.687 186.007 291.015 186.339 293.182 186.996L293.448 186.121L293.713 185.245C291.359 184.531 288.851 184.178 286.192 184.178V185.092ZM293.448 186.121L293.184 186.997C295.369 187.654 297.328 188.615 299.069 189.877L299.606 189.137L300.143 188.396C298.227 187.008 296.081 185.958 293.711 185.245L293.448 186.121ZM299.606 189.137L299.073 189.88C300.809 191.124 302.259 192.64 303.427 194.434L304.194 193.935L304.96 193.436C303.668 191.452 302.06 189.77 300.139 188.393L299.606 189.137ZM304.194 193.935L303.429 194.437C304.588 196.202 305.394 198.229 305.839 200.529L306.737 200.356L307.635 200.182C307.149 197.669 306.26 195.415 304.959 193.433L304.194 193.935ZM327.201 233.35V232.435C324.881 232.435 322.802 232.035 320.95 231.251L320.593 232.093L320.237 232.935C322.341 233.827 324.667 234.264 327.201 234.264V233.35ZM320.593 232.093L320.956 231.253C319.114 230.459 317.679 229.331 316.621 227.876L315.881 228.414L315.141 228.952C316.41 230.696 318.116 232.021 320.231 232.933L320.593 232.093ZM315.881 228.414L316.623 227.88C315.588 226.443 315.051 224.687 315.051 222.565H314.136H313.221C313.221 225.012 313.847 227.156 315.139 228.949L315.881 228.414ZM314.136 222.565H315.051C315.051 220.681 315.455 219.249 316.185 218.196L315.432 217.675L314.68 217.155C313.681 218.599 313.221 220.428 313.221 222.565H314.136ZM315.432 217.675L316.187 218.191C316.959 217.064 317.99 216.175 319.304 215.525L318.898 214.705L318.492 213.885C316.913 214.667 315.635 215.758 314.677 217.159L315.432 217.675ZM318.898 214.705L319.304 215.525C320.671 214.848 322.19 214.338 323.865 214.002L323.685 213.105L323.505 212.209C321.689 212.573 320.017 213.13 318.492 213.885L318.898 214.705ZM323.685 213.105L323.871 214.001C325.608 213.641 327.352 213.356 329.105 213.145L328.996 212.237L328.887 211.329C327.082 211.545 325.287 211.839 323.499 212.21L323.685 213.105ZM328.996 212.237L329.103 213.146C331.427 212.872 333.306 212.667 334.742 212.531L334.656 211.62L334.569 210.71C333.113 210.848 331.219 211.054 328.889 211.329L328.996 212.237ZM334.656 211.62L334.75 212.53C336.24 212.375 337.448 212.11 338.273 211.675L337.847 210.866L337.421 210.057C336.916 210.323 335.997 210.561 334.561 210.71L334.656 211.62ZM337.847 210.866L338.265 211.68C338.75 211.431 339.145 211.07 339.412 210.593C339.675 210.122 339.784 209.591 339.784 209.038H338.869H337.954C337.954 209.354 337.893 209.561 337.815 209.7C337.741 209.832 337.626 209.951 337.429 210.053L337.847 210.866ZM338.869 209.038H339.784V208.855H338.869H337.954V209.038H338.869ZM338.869 208.855H339.784C339.784 206.409 339.046 204.39 337.472 202.93L336.85 203.6L336.228 204.271C337.346 205.309 337.954 206.793 337.954 208.855H338.869ZM336.85 203.6L337.476 202.933C335.91 201.463 333.622 200.812 330.791 200.812V201.727V202.641C333.379 202.641 335.13 203.24 336.223 204.267L336.85 203.6ZM330.791 201.727V200.812C327.872 200.812 325.46 201.396 323.656 202.67L324.184 203.417L324.712 204.165C326.099 203.185 328.091 202.641 330.791 202.641V201.727ZM324.184 203.417L323.656 202.67C321.981 203.854 320.737 205.162 320.002 206.614L320.818 207.028L321.634 207.441C322.195 206.334 323.196 205.235 324.712 204.165L324.184 203.417ZM320.818 207.028L321.102 206.158L315.517 204.33L315.233 205.2L314.948 206.069L320.533 207.897L320.818 207.028ZM315.233 205.2L316.061 205.587C317.002 203.575 318.238 202.046 319.754 200.963L319.222 200.219L318.69 199.474C316.882 200.767 315.458 202.559 314.404 204.812L315.233 205.2ZM319.222 200.219L319.755 200.962C321.339 199.827 323.059 199.039 324.92 198.595L324.707 197.705L324.495 196.815C322.4 197.316 320.463 198.204 318.689 199.475L319.222 200.219ZM324.707 197.705L324.925 198.594C326.853 198.123 328.741 197.889 330.591 197.889V196.974V196.059C328.586 196.059 326.551 196.313 324.49 196.817L324.707 197.705ZM330.591 196.974V197.889C331.756 197.889 333.116 198.019 334.675 198.287L334.83 197.385L334.985 196.484C333.353 196.203 331.887 196.059 330.591 196.059V196.974ZM334.83 197.385L334.685 198.288C336.189 198.53 337.644 199.035 339.052 199.809L339.493 199.008L339.933 198.206C338.35 197.335 336.696 196.758 334.975 196.482L334.83 197.385ZM339.493 199.008L339.056 199.811C340.408 200.546 341.549 201.665 342.473 203.203L343.257 202.732L344.042 202.261C342.971 200.479 341.603 199.114 339.93 198.204L339.493 199.008ZM343.257 202.732L342.473 203.203C343.356 204.672 343.839 206.713 343.839 209.404H344.753H345.668C345.668 206.519 345.154 204.113 344.042 202.261L343.257 202.732ZM344.753 209.404H343.839V232.527H344.753H345.668V209.404H344.753ZM344.753 232.527V231.612H338.869V232.527V233.442H344.753V232.527ZM338.869 232.527H339.784V227.775H338.869H337.954V232.527H338.869ZM338.869 227.775V226.86H338.57V227.775V228.689H338.869V227.775ZM338.57 227.775L337.76 227.35C337.426 227.988 336.84 228.722 335.951 229.55L336.575 230.219L337.199 230.888C338.173 229.98 338.916 229.085 339.38 228.199L338.57 227.775ZM336.575 230.219L335.951 229.55C335.126 230.321 333.995 231.005 332.525 231.585L332.86 232.436L333.196 233.287C334.817 232.648 336.163 231.855 337.199 230.888L336.575 230.219ZM332.86 232.436L332.525 231.585C331.116 232.14 329.35 232.435 327.201 232.435V233.35V234.264C329.506 234.264 331.514 233.95 333.196 233.287L332.86 232.436ZM328.098 228.506V229.42C330.532 229.42 332.648 228.983 334.408 228.059L333.982 227.249L333.557 226.439C332.125 227.191 330.319 227.591 328.098 227.591V228.506ZM333.982 227.249L334.404 228.061C336.139 227.159 337.487 225.972 338.402 224.483L337.623 224.004L336.843 223.525C336.129 224.687 335.051 225.663 333.561 226.437L333.982 227.249ZM337.623 224.004L338.398 224.49C339.313 223.03 339.784 221.469 339.784 219.823H338.869H337.954C337.954 221.101 337.594 222.328 336.848 223.518L337.623 224.004ZM338.869 219.823H339.784V214.888H338.869H337.954V219.823H338.869ZM338.869 214.888L338.192 214.272C338.194 214.271 338.176 214.29 338.123 214.325C338.071 214.36 337.995 214.402 337.89 214.45C337.677 214.548 337.38 214.652 336.986 214.758L337.224 215.642L337.462 216.525C337.915 216.403 338.316 216.267 338.652 216.113C338.976 215.965 339.302 215.771 339.546 215.503L338.869 214.888ZM337.224 215.642L336.996 214.756C336.202 214.96 335.269 215.144 334.193 215.309L334.331 216.213L334.47 217.117C335.588 216.946 336.583 216.75 337.451 216.528L337.224 215.642ZM334.331 216.213L334.204 215.307C333.13 215.459 332.081 215.595 331.058 215.716L331.165 216.624L331.272 217.533C332.31 217.41 333.372 217.272 334.459 217.119L334.331 216.213ZM331.165 216.624L331.069 215.714C330.053 215.821 329.225 215.913 328.587 215.99L328.697 216.898L328.806 217.807C329.431 217.731 330.249 217.64 331.261 217.534L331.165 216.624ZM328.697 216.898L328.588 215.99C327.01 216.179 325.526 216.486 324.138 216.916L324.408 217.789L324.678 218.663C325.95 218.27 327.325 217.984 328.805 217.807L328.697 216.898ZM324.408 217.789L324.144 216.914C322.716 217.345 321.512 218.013 320.573 218.945L321.217 219.595L321.861 220.244C322.55 219.561 323.474 219.027 324.672 218.665L324.408 217.789ZM321.217 219.595L320.572 218.945C319.565 219.946 319.105 221.281 319.105 222.839H320.02H320.935C320.935 221.655 321.273 220.828 321.861 220.244L321.217 219.595ZM320.02 222.839H319.105C319.105 225.009 320.007 226.725 321.799 227.861L322.289 227.089L322.779 226.317C321.545 225.534 320.935 224.417 320.935 222.839H320.02ZM322.289 227.089L321.808 227.867C323.52 228.924 325.635 229.42 328.098 229.42V228.506V227.591C325.874 227.591 324.117 227.143 322.77 226.311L322.289 227.089ZM355.493 245.688H356.408V197.431H355.493H354.578V245.688H355.493ZM355.493 197.431V198.346H361.178V197.431V196.516H355.493V197.431ZM361.178 197.431H360.263V203.006H361.178H362.093V197.431H361.178ZM361.178 203.006V203.921H361.876V203.006V202.091H361.178V203.006ZM361.876 203.006L362.622 203.535C363.038 202.948 363.623 202.189 364.382 201.251L363.671 200.676L362.96 200.1C362.19 201.051 361.578 201.845 361.13 202.477L361.876 203.006ZM363.671 200.676L364.381 201.253C365.062 200.416 366.064 199.635 367.432 198.929L367.012 198.116L366.593 197.304C365.068 198.09 363.843 199.015 362.962 200.098L363.671 200.676ZM367.012 198.116L367.435 198.928C368.717 198.26 370.531 197.889 372.946 197.889V196.974V196.059C370.375 196.059 368.233 196.45 366.59 197.305L367.012 198.116ZM372.946 196.974V197.889C376.026 197.889 378.701 198.593 381.002 199.974L381.473 199.19L381.944 198.406C379.325 196.833 376.316 196.059 372.946 196.059V196.974ZM381.473 199.19L381.002 199.974C383.306 201.358 385.111 203.321 386.417 205.889L387.233 205.474L388.048 205.059C386.595 202.204 384.56 199.978 381.944 198.406L381.473 199.19ZM387.233 205.474L386.417 205.889C387.719 208.447 388.387 211.498 388.387 215.07H389.302H390.217C390.217 211.27 389.505 207.923 388.048 205.059L387.233 205.474ZM389.302 215.07H388.387C388.387 218.674 387.719 221.749 386.416 224.323L387.233 224.736L388.049 225.149C389.506 222.269 390.217 218.9 390.217 215.07H389.302ZM387.233 224.736L386.417 224.321C385.11 226.891 383.311 228.862 381.021 230.261L381.498 231.042L381.975 231.823C384.572 230.236 386.597 228.003 388.048 225.15L387.233 224.736ZM381.498 231.042L381.025 230.259C378.741 231.641 376.091 232.344 373.046 232.344V233.258V234.173C376.384 234.173 379.369 233.398 381.971 231.825L381.498 231.042ZM373.046 233.258V232.344C370.665 232.344 368.854 231.98 367.549 231.322L367.137 232.139L366.725 232.955C368.379 233.79 370.507 234.173 373.046 234.173V233.258ZM367.137 232.139L367.556 231.325C366.151 230.602 365.122 229.811 364.424 228.972L363.721 229.557L363.018 230.142C363.916 231.222 365.164 232.152 366.718 232.952L367.137 232.139ZM363.721 229.557L364.429 228.977C363.639 228.013 363.044 227.229 362.634 226.623L361.876 227.135L361.118 227.647C361.572 228.32 362.207 229.151 363.013 230.136L363.721 229.557ZM361.876 227.135V226.22H361.377V227.135V228.049H361.876V227.135ZM361.377 227.135H360.463V245.688H361.377H362.292V227.135H361.377ZM361.377 245.688V244.773H355.493V245.688V246.603H361.377V245.688ZM361.278 214.979H360.363C360.363 217.726 360.802 220.188 361.705 222.347L362.549 221.994L363.393 221.641C362.601 219.747 362.192 217.533 362.192 214.979H361.278ZM362.549 221.994L361.706 222.349C362.614 224.502 363.956 226.222 365.739 227.472L366.264 226.723L366.789 225.975C365.315 224.94 364.18 223.506 363.392 221.638L362.549 221.994ZM366.264 226.723L365.744 227.476C367.553 228.728 369.738 229.329 372.248 229.329V228.414V227.5C370.037 227.5 368.233 226.974 366.785 225.971L366.264 226.723ZM372.248 228.414V229.329C374.859 229.329 377.11 228.696 378.942 227.374L378.406 226.632L377.871 225.89C376.412 226.944 374.557 227.5 372.248 227.5V228.414ZM378.406 226.632L378.943 227.373C380.752 226.063 382.102 224.308 382.993 222.135L382.146 221.788L381.3 221.441C380.529 223.32 379.385 224.794 377.87 225.891L378.406 226.632ZM382.146 221.788L382.991 222.139C383.891 219.973 384.333 217.582 384.333 214.979H383.418H382.503C382.503 217.372 382.098 219.521 381.302 221.437L382.146 221.788ZM383.418 214.979H384.333C384.333 212.408 383.899 210.061 383.015 207.953L382.171 208.307L381.328 208.661C382.105 210.514 382.503 212.615 382.503 214.979H383.418ZM382.171 208.307L383.018 207.961C382.142 205.813 380.796 204.092 378.979 202.827L378.456 203.577L377.934 204.328C379.441 205.378 380.572 206.81 381.324 208.653L382.171 208.307ZM378.456 203.577L378.987 202.832C377.154 201.526 374.887 200.903 372.248 200.903V201.818V202.733C374.596 202.733 376.468 203.283 377.925 204.322L378.456 203.577ZM372.248 201.818V200.903C369.71 200.903 367.509 201.494 365.699 202.73L366.214 203.486L366.73 204.241C368.177 203.254 369.999 202.733 372.248 202.733V201.818ZM366.214 203.486L365.703 202.727C363.913 203.933 362.574 205.619 361.681 207.747L362.524 208.101L363.368 208.455C364.137 206.624 365.258 205.233 366.725 204.245L366.214 203.486ZM362.524 208.101L361.682 207.745C360.793 209.845 360.363 212.264 360.363 214.979H361.278H362.192C362.192 212.454 362.593 210.288 363.367 208.458L362.524 208.101ZM403.464 185.732H402.549V189.845H403.464H404.379V185.732H403.464ZM403.464 189.845H402.549C402.549 190.972 402.324 192.202 401.853 193.54L402.716 193.844L403.579 194.147C404.105 192.652 404.379 191.216 404.379 189.845H403.464ZM402.716 193.844L401.851 193.546C401.4 194.856 400.729 196.141 399.828 197.402L400.572 197.934L401.316 198.466C402.31 197.076 403.068 195.634 403.581 194.141L402.716 193.844ZM400.572 197.934L399.826 197.404C398.953 198.632 397.893 199.705 396.64 200.623L397.181 201.361L397.722 202.099C399.128 201.067 400.328 199.855 401.317 198.463L400.572 197.934ZM397.181 201.361L397.727 200.627L394.536 198.251L393.99 198.985L393.443 199.718L396.635 202.095L397.181 201.361ZM393.99 198.985L394.716 199.54C395.795 198.128 396.73 196.659 397.52 195.132L396.707 194.712L395.895 194.292C395.156 195.72 394.279 197.099 393.263 198.429L393.99 198.985ZM396.707 194.712L397.518 195.136C398.368 193.512 398.794 191.774 398.794 189.936H397.879H396.964C396.964 191.48 396.609 192.926 395.897 194.288L396.707 194.712ZM397.879 189.936H398.794V185.732H397.879H396.964V189.936H397.879ZM397.879 185.732V186.647H403.464V185.732V184.817H397.879V185.732ZM428.92 197.431H428.006V202.001H428.92H429.835V197.431H428.92ZM428.92 202.001V201.086H409.074V202.001V202.915H428.92V202.001ZM409.074 202.001H409.989V197.431H409.074H408.159V202.001H409.074ZM409.074 197.431V198.346H428.92V197.431V196.516H409.074V197.431ZM414.858 189.022V189.937H420.742V189.022V188.108H414.858V189.022ZM420.742 189.022H419.828V222.474H420.742H421.657V189.022H420.742ZM420.742 222.474H419.828C419.828 224.064 420.074 225.413 420.693 226.39L421.465 225.901L422.238 225.412C421.893 224.866 421.657 223.93 421.657 222.474H420.742ZM421.465 225.901L420.705 226.409C421.302 227.303 422.09 227.944 423.067 228.275L423.36 227.409L423.654 226.543C423.102 226.355 422.626 225.991 422.226 225.393L421.465 225.901ZM423.36 227.409L423.088 228.282C423.962 228.555 424.877 228.689 425.829 228.689V227.775V226.86C425.052 226.86 424.321 226.75 423.633 226.536L423.36 227.409ZM425.829 227.775V228.689C426.5 228.689 427.081 228.658 427.557 228.588L427.424 227.683L427.292 226.778C426.937 226.83 426.454 226.86 425.829 226.86V227.775ZM427.424 227.683L427.589 228.583C428.005 228.507 428.337 228.446 428.587 228.4L428.422 227.5L428.257 226.601C428.008 226.646 427.675 226.707 427.26 226.783L427.424 227.683ZM428.422 227.5L427.534 227.72L428.731 232.564L429.619 232.344L430.507 232.125L429.31 227.281L428.422 227.5ZM429.619 232.344L429.321 231.479C428.982 231.596 428.474 231.723 427.776 231.857L427.948 232.756L428.12 233.654C428.852 233.514 429.457 233.367 429.916 233.209L429.619 232.344ZM427.948 232.756L427.757 231.861C427.128 231.995 426.292 232.069 425.23 232.069V232.984V233.899C426.363 233.899 427.339 233.821 428.139 233.65L427.948 232.756ZM425.23 232.984V232.069C423.692 232.069 422.181 231.767 420.691 231.155L420.344 232.002L419.996 232.848C421.698 233.546 423.445 233.899 425.23 233.899V232.984ZM420.344 232.002L420.694 231.157C419.26 230.562 418.075 229.661 417.125 228.445L416.404 229.008L415.683 229.571C416.828 231.037 418.269 232.131 419.993 232.847L420.344 232.002ZM416.404 229.008L417.129 228.451C416.246 227.301 415.773 225.818 415.773 223.936H414.858H413.944C413.944 226.136 414.502 228.034 415.679 229.566L416.404 229.008ZM414.858 223.936H415.773V189.022H414.858H413.944V223.936H414.858ZM449.041 233.35V232.435C446.721 232.435 444.642 232.035 442.791 231.251L442.434 232.093L442.077 232.935C444.182 233.827 446.508 234.264 449.041 234.264V233.35ZM442.434 232.093L442.796 231.253C440.955 230.459 439.52 229.331 438.461 227.876L437.722 228.414L436.982 228.952C438.251 230.696 439.957 232.021 442.072 232.933L442.434 232.093ZM437.722 228.414L438.464 227.88C437.429 226.443 436.891 224.687 436.891 222.565H435.976H435.062C435.062 225.012 435.688 227.156 436.98 228.949L437.722 228.414ZM435.976 222.565H436.891C436.891 220.681 437.296 219.249 438.025 218.196L437.273 217.675L436.521 217.155C435.521 218.599 435.062 220.428 435.062 222.565H435.976ZM437.273 217.675L438.028 218.191C438.799 217.064 439.831 216.175 441.144 215.525L440.739 214.705L440.333 213.885C438.754 214.667 437.475 215.758 436.518 217.159L437.273 217.675ZM440.739 214.705L441.144 215.525C442.512 214.848 444.031 214.338 445.706 214.002L445.526 213.105L445.346 212.209C443.53 212.573 441.857 213.13 440.333 213.885L440.739 214.705ZM445.526 213.105L445.712 214.001C447.448 213.641 449.193 213.356 450.945 213.145L450.836 212.237L450.728 211.329C448.923 211.545 447.127 211.839 445.34 212.21L445.526 213.105ZM450.836 212.237L450.943 213.146C453.267 212.872 455.146 212.667 456.582 212.531L456.496 211.62L456.41 210.71C454.954 210.848 453.06 211.054 450.729 211.329L450.836 212.237ZM456.496 211.62L456.591 212.53C458.08 212.375 459.289 212.11 460.114 211.675L459.688 210.866L459.261 210.057C458.757 210.323 457.838 210.561 456.401 210.71L456.496 211.62ZM459.688 210.866L460.106 211.68C460.59 211.431 460.986 211.07 461.253 210.593C461.516 210.122 461.625 209.591 461.625 209.038H460.71H459.795C459.795 209.354 459.734 209.561 459.656 209.7C459.582 209.832 459.466 209.951 459.269 210.053L459.688 210.866ZM460.71 209.038H461.625V208.855H460.71H459.795V209.038H460.71ZM460.71 208.855H461.625C461.625 206.409 460.887 204.39 459.312 202.93L458.69 203.6L458.068 204.271C459.187 205.309 459.795 206.793 459.795 208.855H460.71ZM458.69 203.6L459.317 202.933C457.751 201.463 455.463 200.812 452.632 200.812V201.727V202.641C455.219 202.641 456.97 203.24 458.064 204.267L458.69 203.6ZM452.632 201.727V200.812C449.713 200.812 447.301 201.396 445.497 202.67L446.024 203.417L446.552 204.165C447.939 203.185 449.932 202.641 452.632 202.641V201.727ZM446.024 203.417L445.497 202.67C443.821 203.854 442.578 205.162 441.842 206.614L442.658 207.028L443.474 207.441C444.035 206.334 445.036 205.235 446.552 204.165L446.024 203.417ZM442.658 207.028L442.943 206.158L437.358 204.33L437.073 205.2L436.789 206.069L442.374 207.897L442.658 207.028ZM437.073 205.2L437.902 205.587C438.843 203.575 440.079 202.046 441.595 200.963L441.063 200.219L440.531 199.474C438.722 200.767 437.299 202.559 436.245 204.812L437.073 205.2ZM441.063 200.219L441.596 200.962C443.18 199.827 444.9 199.039 446.76 198.595L446.548 197.705L446.336 196.815C444.24 197.316 442.303 198.204 440.53 199.475L441.063 200.219ZM446.548 197.705L446.765 198.594C448.693 198.123 450.582 197.889 452.432 197.889V196.974V196.059C450.426 196.059 448.392 196.313 446.331 196.817L446.548 197.705ZM452.432 196.974V197.889C453.597 197.889 454.956 198.019 456.516 198.287L456.671 197.385L456.826 196.484C455.194 196.203 453.727 196.059 452.432 196.059V196.974ZM456.671 197.385L456.526 198.288C458.03 198.53 459.484 199.035 460.892 199.809L461.333 199.008L461.774 198.206C460.19 197.335 458.536 196.758 456.816 196.482L456.671 197.385ZM461.333 199.008L460.896 199.811C462.248 200.546 463.39 201.665 464.314 203.203L465.098 202.732L465.882 202.261C464.812 200.479 463.443 199.114 461.77 198.204L461.333 199.008ZM465.098 202.732L464.314 203.203C465.196 204.672 465.679 206.713 465.679 209.404H466.594H467.509C467.509 206.519 466.995 204.113 465.882 202.261L465.098 202.732ZM466.594 209.404H465.679V232.527H466.594H467.509V209.404H466.594ZM466.594 232.527V231.612H460.71V232.527V233.442H466.594V232.527ZM460.71 232.527H461.625V227.775H460.71H459.795V232.527H460.71ZM460.71 227.775V226.86H460.411V227.775V228.689H460.71V227.775ZM460.411 227.775L459.6 227.35C459.266 227.988 458.68 228.722 457.792 229.55L458.416 230.219L459.04 230.888C460.013 229.98 460.757 229.085 461.221 228.199L460.411 227.775ZM458.416 230.219L457.792 229.55C456.966 230.321 455.836 231.005 454.366 231.585L454.701 232.436L455.036 233.287C456.658 232.648 458.004 231.855 459.04 230.888L458.416 230.219ZM454.701 232.436L454.366 231.585C452.956 232.14 451.191 232.435 449.041 232.435V233.35V234.264C451.347 234.264 453.354 233.95 455.036 233.287L454.701 232.436ZM449.939 228.506V229.42C452.372 229.42 454.489 228.983 456.248 228.059L455.823 227.249L455.398 226.439C453.966 227.191 452.16 227.591 449.939 227.591V228.506ZM455.823 227.249L456.245 228.061C457.979 227.159 459.328 225.972 460.242 224.483L459.463 224.004L458.684 223.525C457.97 224.687 456.891 225.663 455.401 226.437L455.823 227.249ZM459.463 224.004L460.238 224.49C461.154 223.03 461.625 221.469 461.625 219.823H460.71H459.795C459.795 221.101 459.435 222.328 458.688 223.518L459.463 224.004ZM460.71 219.823H461.625V214.888H460.71H459.795V219.823H460.71ZM460.71 214.888L460.033 214.272C460.034 214.271 460.017 214.29 459.964 214.325C459.911 214.36 459.836 214.402 459.73 214.45C459.518 214.548 459.221 214.652 458.826 214.758L459.064 215.642L459.302 216.525C459.755 216.403 460.156 216.267 460.492 216.113C460.817 215.965 461.143 215.771 461.387 215.503L460.71 214.888ZM459.064 215.642L458.837 214.756C458.042 214.96 457.109 215.144 456.034 215.309L456.172 216.213L456.31 217.117C457.429 216.946 458.424 216.75 459.292 216.528L459.064 215.642ZM456.172 216.213L456.044 215.307C454.97 215.459 453.922 215.595 452.898 215.716L453.006 216.624L453.113 217.533C454.151 217.41 455.213 217.272 456.3 217.119L456.172 216.213ZM453.006 216.624L452.91 215.714C451.894 215.821 451.066 215.913 450.428 215.99L450.537 216.898L450.647 217.807C451.272 217.731 452.09 217.64 453.101 217.534L453.006 216.624ZM450.537 216.898L450.429 215.99C448.85 216.179 447.366 216.486 445.978 216.916L446.249 217.789L446.519 218.663C447.791 218.27 449.166 217.984 450.646 217.807L450.537 216.898ZM446.249 217.789L445.985 216.914C444.556 217.345 443.353 218.013 442.413 218.945L443.057 219.595L443.701 220.244C444.391 219.561 445.315 219.027 446.513 218.665L446.249 217.789ZM443.057 219.595L442.413 218.945C441.405 219.946 440.946 221.281 440.946 222.839H441.861H442.775C442.775 221.655 443.114 220.828 443.702 220.244L443.057 219.595ZM441.861 222.839H440.946C440.946 225.009 441.848 226.725 443.639 227.861L444.129 227.089L444.62 226.317C443.386 225.534 442.775 224.417 442.775 222.839H441.861ZM444.129 227.089L443.649 227.867C445.36 228.924 447.476 229.42 449.939 229.42V228.506V227.591C447.714 227.591 445.957 227.143 444.61 226.311L444.129 227.089ZM477.334 232.527H478.249V197.431H477.334H476.419V232.527H477.334ZM477.334 197.431V198.346H483.218V197.431V196.516H477.334V197.431ZM483.218 197.431H482.303V232.527H483.218H484.133V197.431H483.218ZM483.218 232.527V231.612H477.334V232.527V233.442H483.218V232.527ZM480.326 191.582V190.667C479.387 190.667 478.613 190.381 477.956 189.815L477.359 190.508L476.762 191.201C477.767 192.067 478.971 192.496 480.326 192.496V191.582ZM477.359 190.508L477.963 189.821C477.328 189.263 477.052 188.646 477.052 187.926H476.137H475.222C475.222 189.217 475.76 190.321 476.755 191.195L477.359 190.508ZM476.137 187.926H477.052C477.052 187.206 477.328 186.588 477.963 186.031L477.359 185.344L476.755 184.657C475.76 185.531 475.222 186.635 475.222 187.926H476.137ZM477.359 185.344L477.956 186.037C478.613 185.471 479.387 185.185 480.326 185.185V184.27V183.355C478.971 183.355 477.767 183.785 476.762 184.651L477.359 185.344ZM480.326 184.27V185.185C481.264 185.185 482.027 185.471 482.664 186.031L483.268 185.344L483.872 184.657C482.88 183.785 481.681 183.355 480.326 183.355V184.27ZM483.268 185.344L482.671 186.037C483.321 186.597 483.6 187.213 483.6 187.926H484.514H485.429C485.429 186.628 484.877 185.523 483.865 184.651L483.268 185.344ZM484.514 187.926H483.6C483.6 188.639 483.321 189.255 482.671 189.815L483.268 190.508L483.865 191.201C484.877 190.329 485.429 189.224 485.429 187.926H484.514ZM483.268 190.508L482.664 189.821C482.027 190.381 481.264 190.667 480.326 190.667V191.582V192.496C481.681 192.496 482.88 192.066 483.872 191.195L483.268 190.508ZM499.879 211.415H498.965V232.527H499.879H500.794V211.415H499.879ZM499.879 232.527V231.612H493.995V232.527V233.442H499.879V232.527ZM493.995 232.527H494.91V197.431H493.995H493.08V232.527H493.995ZM493.995 197.431V198.346H499.68V197.431V196.516H493.995V197.431ZM499.68 197.431H498.765V202.915H499.68H500.595V197.431H499.68ZM499.68 202.915V203.829H500.179V202.915V202H499.68V202.915ZM500.179 202.915L500.995 203.326C501.809 201.711 503.045 200.405 504.733 199.406L504.268 198.619L503.802 197.832C501.833 198.996 500.343 200.555 499.362 202.503L500.179 202.915ZM504.268 198.619L504.738 199.404C506.382 198.417 508.565 197.889 511.348 197.889V196.974V196.059C508.347 196.059 505.81 196.627 503.797 197.835L504.268 198.619ZM511.348 196.974V197.889C513.826 197.889 515.95 198.354 517.745 199.254L518.155 198.436L518.565 197.619C516.471 196.569 514.057 196.059 511.348 196.059V196.974ZM518.155 198.436L517.75 199.257C519.521 200.13 520.898 201.457 521.891 203.264L522.693 202.823L523.494 202.383C522.327 200.259 520.679 198.662 518.56 197.616L518.155 198.436ZM522.693 202.823L521.893 203.267C522.877 205.042 523.399 207.345 523.399 210.226H524.314H525.228C525.228 207.136 524.67 204.504 523.493 202.38L522.693 202.823ZM524.314 210.226H523.399V232.527H524.314H525.228V210.226H524.314ZM524.314 232.527V231.612H518.429V232.527V233.442H524.314V232.527ZM518.429 232.527H519.344V210.592H518.429H517.515V232.527H518.429ZM518.429 210.592H519.344C519.344 207.656 518.507 205.249 516.727 203.497L516.086 204.149L515.444 204.8C516.789 206.125 517.515 208.013 517.515 210.592H518.429ZM516.086 204.149L516.731 203.5C514.958 201.737 512.56 200.903 509.653 200.903V201.818V202.733C512.198 202.733 514.088 203.452 515.441 204.797L516.086 204.149ZM509.653 201.818V200.903C507.651 200.903 505.828 201.302 504.205 202.121L504.617 202.938L505.029 203.754C506.364 203.08 507.899 202.733 509.653 202.733V201.818ZM504.617 202.938L504.201 202.123C502.582 202.949 501.299 204.16 500.364 205.739L501.151 206.205L501.938 206.671C502.699 205.386 503.726 204.419 505.032 203.752L504.617 202.938ZM501.151 206.205L500.364 205.739C499.415 207.341 498.965 209.246 498.965 211.415H499.879H500.794C500.794 209.5 501.191 207.933 501.938 206.671L501.151 206.205ZM306.278 261.111V260.197H300.092V261.111V262.026H306.278V261.111ZM300.092 261.111L300.984 260.911C300.593 259.167 299.903 257.615 298.906 256.269L298.171 256.814L297.436 257.358C298.268 258.481 298.859 259.794 299.199 261.312L300.092 261.111ZM298.171 256.814L298.91 256.276C297.945 254.949 296.765 253.835 295.374 252.936L294.878 253.705L294.382 254.473C295.585 255.251 296.6 256.209 297.431 257.352L298.171 256.814ZM294.878 253.705L295.385 252.943C294.019 252.033 292.506 251.353 290.853 250.902L290.612 251.784L290.371 252.667C291.845 253.069 293.176 253.67 294.371 254.466L294.878 253.705ZM290.612 251.784L290.853 250.902C289.208 250.453 287.497 250.23 285.723 250.23V251.144V252.059C287.342 252.059 288.89 252.262 290.371 252.667L290.612 251.784ZM285.723 251.144V250.23C282.482 250.23 279.522 250.982 276.863 252.499L277.316 253.293L277.77 254.088C280.133 252.739 282.777 252.059 285.723 252.059V251.144ZM277.316 253.293L276.861 252.5C274.203 254.027 272.099 256.271 270.547 259.197L271.355 259.626L272.163 260.054C273.57 257.402 275.441 255.425 277.772 254.086L277.316 253.293ZM271.355 259.626L270.545 259.2C268.995 262.153 268.245 265.729 268.245 269.89H269.159H270.074C270.074 265.943 270.787 262.676 272.165 260.051L271.355 259.626ZM269.159 269.89H268.245C268.245 274.051 268.995 277.627 270.545 280.579L271.355 280.154L272.165 279.729C270.787 277.104 270.074 273.837 270.074 269.89H269.159ZM271.355 280.154L270.547 280.583C272.099 283.509 274.203 285.753 276.861 287.28L277.316 286.487L277.772 285.693C275.441 284.355 273.57 282.378 272.163 279.725L271.355 280.154ZM277.316 286.487L276.863 287.281C279.522 288.798 282.482 289.55 285.723 289.55V288.635V287.721C282.777 287.721 280.133 287.04 277.77 285.692L277.316 286.487ZM285.723 288.635V289.55C287.497 289.55 289.208 289.327 290.853 288.878L290.612 287.995L290.371 287.113C288.89 287.517 287.342 287.721 285.723 287.721V288.635ZM290.612 287.995L290.853 288.878C292.503 288.427 294.014 287.757 295.379 286.863L294.878 286.098L294.377 285.333C293.181 286.115 291.848 286.71 290.371 287.113L290.612 287.995ZM294.878 286.098L295.381 286.862C296.768 285.949 297.947 284.829 298.91 283.504L298.171 282.966L297.431 282.428C296.599 283.572 295.582 284.54 294.375 285.334L294.878 286.098ZM298.171 282.966L298.909 283.506C299.903 282.149 300.592 280.599 300.984 278.87L300.092 278.668L299.199 278.466C298.859 279.968 298.268 281.284 297.433 282.426L298.171 282.966ZM300.092 278.668V279.583H306.278V278.668V277.754H300.092V278.668ZM306.278 278.668L305.38 278.494C304.935 280.78 304.128 282.81 302.967 284.593L303.734 285.092L304.5 285.591C305.8 283.595 306.69 281.342 307.176 278.843L306.278 278.668ZM303.734 285.092L302.967 284.593C301.798 286.389 300.346 287.915 298.607 289.175L299.144 289.916L299.68 290.656C301.6 289.265 303.208 287.575 304.5 285.591L303.734 285.092ZM299.144 289.916L298.611 289.172C296.868 290.421 294.906 291.376 292.718 292.034L292.982 292.91L293.246 293.786C295.615 293.073 297.761 292.032 299.676 290.659L299.144 289.916ZM292.982 292.91L292.717 292.035C290.548 292.692 288.219 293.024 285.723 293.024V293.939V294.854C288.383 294.854 290.892 294.5 293.248 293.786L292.982 292.91ZM285.723 293.939V293.024C281.507 293.024 277.793 292.082 274.555 290.22L274.099 291.013L273.643 291.806C277.189 293.845 281.224 294.854 285.723 294.854V293.939ZM274.099 291.013L274.555 290.22C271.316 288.358 268.764 285.711 266.896 282.257L266.091 282.692L265.287 283.127C267.309 286.866 270.096 289.767 273.643 291.806L274.099 291.013ZM266.091 282.692L266.896 282.257C265.036 278.819 264.087 274.707 264.087 269.89H263.172H262.258C262.258 274.948 263.255 279.372 265.287 283.127L266.091 282.692ZM263.172 269.89H264.087C264.087 265.073 265.036 260.961 266.896 257.523L266.091 257.088L265.287 256.653C263.255 260.408 262.258 264.831 262.258 269.89H263.172ZM266.091 257.088L266.896 257.523C268.764 254.069 271.316 251.422 274.555 249.56L274.099 248.767L273.643 247.974C270.096 250.013 267.309 252.914 265.287 256.653L266.091 257.088ZM274.099 248.767L274.555 249.56C277.793 247.698 281.507 246.755 285.723 246.755V245.841V244.926C281.224 244.926 277.189 245.935 273.643 247.974L274.099 248.767ZM285.723 245.841V246.755C288.219 246.755 290.548 247.087 292.717 247.745L292.982 246.869L293.248 245.994C290.892 245.28 288.383 244.926 285.723 244.926V245.841ZM292.982 246.869L292.718 247.745C294.904 248.403 296.865 249.365 298.607 250.628L299.144 249.887L299.68 249.146C297.764 247.757 295.617 246.707 293.246 245.993L292.982 246.869ZM299.144 249.887L298.611 250.631C300.348 251.875 301.798 253.392 302.967 255.187L303.734 254.688L304.5 254.189C303.208 252.204 301.598 250.52 299.676 249.143L299.144 249.887ZM303.734 254.688L302.969 255.19C304.128 256.956 304.935 258.983 305.38 261.285L306.278 261.111L307.176 260.938C306.69 258.424 305.8 256.169 304.498 254.186L303.734 254.688ZM331.042 294.031V293.116C327.72 293.116 324.848 292.393 322.395 290.975L321.937 291.767L321.48 292.559C324.249 294.16 327.447 294.945 331.042 294.945V294.031ZM321.937 291.767L322.397 290.977C319.953 289.555 318.042 287.569 316.656 285.001L315.851 285.435L315.046 285.869C316.587 288.726 318.733 290.962 321.478 292.558L321.937 291.767ZM315.851 285.435L316.658 285.005C315.293 282.446 314.595 279.429 314.595 275.925H313.681H312.766C312.766 279.675 313.514 282.998 315.044 285.865L315.851 285.435ZM313.681 275.925H314.595C314.595 272.389 315.294 269.349 316.659 266.775L315.851 266.346L315.043 265.918C313.514 268.8 312.766 272.145 312.766 275.925H313.681ZM315.851 266.346L316.657 266.779C318.043 264.195 319.954 262.203 322.397 260.782L321.937 259.991L321.478 259.201C318.732 260.797 316.586 263.042 315.045 265.914L315.851 266.346ZM321.937 259.991L322.395 260.783C324.848 259.366 327.72 258.643 331.042 258.643V257.728V256.813C327.447 256.813 324.249 257.599 321.48 259.199L321.937 259.991ZM331.042 257.728V258.643C334.365 258.643 337.228 259.366 339.663 260.782L340.123 259.991L340.582 259.201C337.828 257.599 334.638 256.813 331.042 256.813V257.728ZM340.123 259.991L339.665 260.783C342.124 262.204 344.033 264.195 345.401 266.775L346.209 266.346L347.017 265.918C345.492 263.042 343.343 260.796 340.58 259.199L340.123 259.991ZM346.209 266.346L345.403 266.779C346.783 269.352 347.49 272.391 347.49 275.925H348.404H349.319C349.319 272.144 348.562 268.797 347.015 265.914L346.209 266.346ZM348.404 275.925H347.49C347.49 279.427 346.784 282.443 345.404 285.001L346.209 285.435L347.014 285.869C348.561 283.001 349.319 279.677 349.319 275.925H348.404ZM346.209 285.435L345.402 285.005C344.034 287.57 342.125 289.554 339.665 290.975L340.123 291.767L340.58 292.559C343.342 290.963 345.491 288.726 347.016 285.865L346.209 285.435ZM340.123 291.767L339.663 290.977C337.228 292.393 334.365 293.116 331.042 293.116V294.031V294.945C334.638 294.945 337.828 294.16 340.582 292.558L340.123 291.767ZM331.042 289.184V290.099C333.814 290.099 336.178 289.446 338.066 288.072L337.528 287.332L336.99 286.593C335.486 287.688 333.526 288.269 331.042 288.269V289.184ZM337.528 287.332L338.066 288.072C339.906 286.733 341.266 284.971 342.143 282.807L341.295 282.463L340.447 282.12C339.694 283.979 338.543 285.463 336.99 286.593L337.528 287.332ZM341.295 282.463L342.143 282.807C343.005 280.677 343.432 278.38 343.432 275.925H342.517H341.603C341.603 278.164 341.214 280.226 340.447 282.12L341.295 282.463ZM342.517 275.925H343.432C343.432 273.47 343.005 271.166 342.144 269.023L341.295 269.364L340.446 269.705C341.214 271.616 341.603 273.686 341.603 275.925H342.517ZM341.295 269.364L342.144 269.023C341.268 266.844 339.909 265.067 338.071 263.713L337.528 264.449L336.986 265.186C338.54 266.331 339.692 267.83 340.446 269.705L341.295 269.364ZM337.528 264.449L338.071 263.713C336.182 262.321 333.816 261.66 331.042 261.66V262.575V263.489C333.524 263.489 335.482 264.078 336.986 265.186L337.528 264.449ZM331.042 262.575V261.66C328.269 261.66 325.903 262.321 324.014 263.713L324.557 264.449L325.099 265.186C326.603 264.078 328.561 263.489 331.042 263.489V262.575ZM324.557 264.449L324.014 263.713C322.176 265.067 320.817 266.844 319.941 269.023L320.79 269.364L321.639 269.705C322.393 267.83 323.545 266.331 325.099 265.186L324.557 264.449ZM320.79 269.364L319.941 269.023C319.08 271.166 318.653 273.47 318.653 275.925H319.568H320.482C320.482 273.686 320.871 271.616 321.639 269.705L320.79 269.364ZM319.568 275.925H318.653C318.653 278.38 319.08 280.677 319.942 282.807L320.79 282.463L321.638 282.12C320.871 280.226 320.482 278.164 320.482 275.925H319.568ZM320.79 282.463L319.942 282.807C320.819 284.971 322.179 286.733 324.018 288.072L324.557 287.332L325.095 286.593C323.542 285.463 322.391 283.979 321.638 282.12L320.79 282.463ZM324.557 287.332L324.018 288.072C325.907 289.446 328.271 290.099 331.042 290.099V289.184V288.269C328.559 288.269 326.599 287.688 325.095 286.593L324.557 287.332ZM363.278 272.176H362.363V293.299H363.278H364.193V272.176H363.278ZM363.278 293.299V292.384H357.391V293.299V294.214H363.278V293.299ZM357.391 293.299H358.306V258.185H357.391H356.476V293.299H357.391ZM357.391 258.185V259.1H363.078V258.185V257.271H357.391V258.185ZM363.078 258.185H362.164V263.672H363.078H363.993V258.185H363.078ZM363.078 263.672V264.587H363.577V263.672V262.757H363.078V263.672ZM363.577 263.672L364.394 264.083C365.209 262.467 366.445 261.16 368.134 260.161L367.668 259.374L367.203 258.587C365.233 259.752 363.742 261.311 362.76 263.26L363.577 263.672ZM367.668 259.374L368.139 260.158C369.784 259.172 371.968 258.643 374.753 258.643V257.728V256.813C371.75 256.813 369.211 257.382 367.198 258.59L367.668 259.374ZM374.753 257.728V258.643C377.232 258.643 379.357 259.108 381.153 260.009L381.563 259.191L381.973 258.373C379.878 257.323 377.462 256.813 374.753 256.813V257.728ZM381.563 259.191L381.158 260.011C382.93 260.886 384.307 262.213 385.301 264.021L386.103 263.58L386.905 263.14C385.737 261.015 384.087 259.417 381.968 258.371L381.563 259.191ZM386.103 263.58L385.303 264.024C386.287 265.801 386.81 268.105 386.81 270.987H387.724H388.639C388.639 267.896 388.08 265.262 386.903 263.137L386.103 263.58ZM387.724 270.987H386.81V293.299H387.724H388.639V270.987H387.724ZM387.724 293.299V292.384H381.837V293.299V294.214H387.724V293.299ZM381.837 293.299H382.752V271.353H381.837H380.923V293.299H381.837ZM381.837 271.353H382.752C382.752 268.416 381.915 266.007 380.134 264.254L379.493 264.906L378.851 265.558C380.197 266.884 380.923 268.773 380.923 271.353H381.837ZM379.493 264.906L380.138 264.258C378.364 262.494 375.965 261.66 373.057 261.66V262.575V263.489C375.603 263.489 377.494 264.209 378.848 265.555L379.493 264.906ZM373.057 262.575V261.66C371.054 261.66 369.23 262.059 367.606 262.878L368.018 263.695L368.43 264.511C369.766 263.837 371.301 263.489 373.057 263.489V262.575ZM368.018 263.695L367.602 262.88C365.982 263.707 364.698 264.918 363.763 266.498L364.55 266.964L365.337 267.43C366.099 266.144 367.126 265.176 368.433 264.509L368.018 263.695ZM364.55 266.964L363.763 266.498C362.814 268.1 362.363 270.007 362.363 272.176H363.278H364.193C364.193 270.261 364.59 268.692 365.337 267.43L364.55 266.964ZM404.369 272.176H403.454V293.299H404.369H405.284V272.176H404.369ZM404.369 293.299V292.384H398.482V293.299V294.214H404.369V293.299ZM398.482 293.299H399.397V258.185H398.482H397.567V293.299H398.482ZM398.482 258.185V259.1H404.17V258.185V257.271H398.482V258.185ZM404.17 258.185H403.255V263.672H404.17H405.084V258.185H404.17ZM404.17 263.672V264.587H404.669V263.672V262.757H404.17V263.672ZM404.669 263.672L405.486 264.083C406.3 262.467 407.536 261.16 409.225 260.161L408.76 259.374L408.294 258.587C406.324 259.752 404.833 261.311 403.852 263.26L404.669 263.672ZM408.76 259.374L409.23 260.158C410.875 259.172 413.059 258.643 415.844 258.643V257.728V256.813C412.842 256.813 410.303 257.382 408.289 258.59L408.76 259.374ZM415.844 257.728V258.643C418.323 258.643 420.448 259.108 422.244 260.009L422.654 259.191L423.064 258.373C420.969 257.323 418.554 256.813 415.844 256.813V257.728ZM422.654 259.191L422.249 260.011C424.021 260.886 425.399 262.213 426.393 264.021L427.194 263.58L427.996 263.14C426.828 261.015 425.179 259.417 423.059 258.371L422.654 259.191ZM427.194 263.58L426.394 264.024C427.379 265.801 427.901 268.105 427.901 270.987H428.816H429.73C429.73 267.896 429.172 265.262 427.994 263.137L427.194 263.58ZM428.816 270.987H427.901V293.299H428.816H429.73V270.987H428.816ZM428.816 293.299V292.384H422.929V293.299V294.214H428.816V293.299ZM422.929 293.299H423.843V271.353H422.929H422.014V293.299H422.929ZM422.929 271.353H423.843C423.843 268.416 423.006 266.007 421.225 264.254L420.584 264.906L419.942 265.558C421.288 266.884 422.014 268.773 422.014 271.353H422.929ZM420.584 264.906L421.229 264.258C419.455 262.494 417.056 261.66 414.148 261.66V262.575V263.489C416.694 263.489 418.586 264.209 419.939 265.555L420.584 264.906ZM414.148 262.575V261.66C412.145 261.66 410.321 262.059 408.697 262.878L409.109 263.695L409.521 264.511C410.857 263.837 412.392 263.489 414.148 263.489V262.575ZM409.109 263.695L408.693 262.88C407.073 263.707 405.789 264.918 404.854 266.498L405.641 266.964L406.429 267.43C407.19 266.144 408.218 265.176 409.525 264.509L409.109 263.695ZM405.641 266.964L404.854 266.498C403.906 268.1 403.454 270.007 403.454 272.176H404.369H405.284C405.284 270.261 405.681 268.692 406.429 267.43L405.641 266.964ZM455.638 294.031V293.116C452.07 293.116 449.046 292.395 446.53 290.991L446.084 291.79L445.638 292.589C448.477 294.173 451.822 294.945 455.638 294.945V294.031ZM446.084 291.79L446.535 290.995C444.025 289.571 442.094 287.594 440.729 285.048L439.923 285.481L439.116 285.913C440.645 288.763 442.822 290.992 445.633 292.586L446.084 291.79ZM439.923 285.481L440.732 285.054C439.382 282.494 438.692 279.49 438.692 276.017H437.777H436.862C436.862 279.736 437.603 283.042 439.113 285.907L439.923 285.481ZM437.777 276.017H438.692C438.692 272.543 439.382 269.522 440.734 266.929L439.923 266.507L439.111 266.084C437.603 268.977 436.862 272.297 436.862 276.017H437.777ZM439.923 266.507L440.733 266.931C442.104 264.316 444.001 262.295 446.428 260.845L445.959 260.06L445.49 259.275C442.762 260.904 440.635 263.18 439.112 266.082L439.923 266.507ZM445.959 260.06L446.429 260.845C448.862 259.387 451.722 258.643 455.039 258.643V257.728V256.813C451.439 256.813 448.245 257.624 445.489 259.275L445.959 260.06ZM455.039 257.728V258.643C456.94 258.643 458.819 258.933 460.678 259.515L460.951 258.643L461.225 257.77C459.193 257.133 457.13 256.813 455.039 256.813V257.728ZM460.951 258.643L460.678 259.515C462.501 260.087 464.163 261.015 465.669 262.308L466.265 261.614L466.861 260.921C465.173 259.471 463.293 258.418 461.225 257.77L460.951 258.643ZM466.265 261.614L465.673 262.311C467.144 263.562 468.338 265.236 469.239 267.366L470.081 267.009L470.924 266.653C469.929 264.302 468.579 262.38 466.857 260.917L466.265 261.614ZM470.081 267.009L469.239 267.366C470.126 269.462 470.589 272.091 470.589 275.285H471.503H472.418C472.418 271.926 471.933 269.038 470.924 266.653L470.081 267.009ZM471.503 275.285H470.589V277.571H471.503H472.418V275.285H471.503ZM471.503 277.571V276.656H441.968V277.571V278.486H471.503V277.571ZM441.968 277.571H442.883V272.907H441.968H441.053V277.571H441.968ZM441.968 272.907V273.822H465.516V272.907V271.993H441.968V272.907ZM465.516 272.907H466.431C466.431 270.789 465.967 268.865 465.019 267.159L464.219 267.604L463.42 268.049C464.201 269.452 464.602 271.064 464.602 272.907H465.516ZM464.219 267.604L465.022 267.166C464.09 265.458 462.753 264.109 461.03 263.128L460.577 263.923L460.125 264.718C461.561 265.536 462.652 266.641 463.416 268.042L464.219 267.604ZM460.577 263.923L461.033 263.13C459.308 262.138 457.299 261.66 455.039 261.66V262.575V263.489C457.037 263.489 458.72 263.91 460.121 264.716L460.577 263.923ZM455.039 262.575V261.66C452.552 261.66 450.349 262.227 448.469 263.398L448.953 264.175L449.436 264.951C450.982 263.989 452.837 263.489 455.039 263.489V262.575ZM448.953 264.175L448.471 263.397C446.644 264.53 445.225 266.017 444.232 267.855L445.036 268.29L445.841 268.725C446.677 267.179 447.869 265.923 449.435 264.952L448.953 264.175ZM445.036 268.29L444.232 267.855C443.244 269.681 442.75 271.644 442.75 273.73H443.664H444.579C444.579 271.946 444.999 270.282 445.841 268.725L445.036 268.29ZM443.664 273.73H442.75V276.839H443.664H444.579V273.73H443.664ZM443.664 276.839H442.75C442.75 279.604 443.27 282.01 444.357 284.019L445.161 283.583L445.966 283.148C445.057 281.468 444.579 279.379 444.579 276.839H443.664ZM445.161 283.583L444.361 284.027C445.459 286.005 446.99 287.528 448.946 288.573L449.377 287.767L449.808 286.96C448.172 286.085 446.892 284.819 445.961 283.14L445.161 283.583ZM449.377 287.767L448.951 288.576C450.899 289.601 453.137 290.099 455.638 290.099V289.184V288.269C453.383 288.269 451.447 287.822 449.803 286.957L449.377 287.767ZM455.638 289.184V290.099C457.262 290.099 458.754 289.891 460.106 289.462L459.829 288.59L459.552 287.718C458.409 288.081 457.107 288.269 455.638 288.269V289.184ZM459.829 288.59L460.112 289.46C461.484 289.013 462.686 288.344 463.702 287.447L463.097 286.761L462.491 286.075C461.678 286.793 460.701 287.344 459.546 287.72L459.829 288.59ZM463.097 286.761L463.709 287.441C464.733 286.519 465.516 285.382 466.064 284.044L465.217 283.698L464.37 283.351C463.92 284.452 463.29 285.356 462.485 286.081L463.097 286.761ZM465.217 283.698L464.989 284.584L470.677 286.047L470.905 285.161L471.133 284.275L465.445 282.812L465.217 283.698ZM470.905 285.161L470.038 284.867C469.489 286.488 468.567 287.917 467.257 289.161L467.886 289.824L468.516 290.488C470.032 289.049 471.123 287.369 471.771 285.454L470.905 285.161ZM467.886 289.824L467.26 289.157C465.95 290.386 464.316 291.362 462.338 292.072L462.648 292.933L462.957 293.794C465.137 293.011 466.995 291.914 468.512 290.491L467.886 289.824ZM462.648 292.933L462.344 292.07C460.378 292.762 458.147 293.116 455.638 293.116V294.031V294.945C458.318 294.945 460.759 294.567 462.951 293.796L462.648 292.933ZM496.025 294.031V293.116C492.567 293.116 489.643 292.369 487.215 290.914L486.745 291.699L486.275 292.483C489.036 294.138 492.298 294.945 496.025 294.945V294.031ZM486.745 291.699L487.215 290.914C484.77 289.449 482.892 287.436 481.572 284.858L480.758 285.275L479.944 285.692C481.418 288.57 483.532 290.84 486.275 292.483L486.745 291.699ZM480.758 285.275L481.572 284.858C480.25 282.277 479.577 279.306 479.577 275.925H478.663H477.748C477.748 279.554 478.472 282.817 479.944 285.692L480.758 285.275ZM478.663 275.925H479.577C479.577 272.483 480.267 269.486 481.618 266.908L480.808 266.484L479.998 266.059C478.489 268.937 477.748 272.234 477.748 275.925H478.663ZM480.808 266.484L481.617 266.91C482.988 264.31 484.885 262.296 487.314 260.845L486.845 260.06L486.376 259.275C483.649 260.903 481.521 263.17 479.999 266.057L480.808 266.484ZM486.845 260.06L487.315 260.845C489.748 259.387 492.607 258.643 495.925 258.643V257.728V256.813C492.324 256.813 489.13 257.624 486.375 259.275L486.845 260.06ZM495.925 257.728V258.643C498.514 258.643 500.819 259.082 502.852 259.942L503.209 259.1L503.565 258.257C501.275 257.289 498.723 256.813 495.925 256.813V257.728ZM503.209 259.1L502.852 259.942C504.894 260.806 506.542 262.003 507.821 263.528L508.522 262.94L509.223 262.353C507.741 260.586 505.848 259.223 503.565 258.257L503.209 259.1ZM508.522 262.94L507.821 263.528C509.09 265.041 509.879 266.804 510.187 268.838L511.092 268.701L511.996 268.564C511.639 266.209 510.715 264.132 509.223 262.353L508.522 262.94ZM511.092 268.701V267.786H505.204V268.701V269.616H511.092V268.701ZM505.204 268.701L506.085 268.454C505.575 266.636 504.449 265.065 502.782 263.734L502.211 264.449L501.64 265.164C503.066 266.302 503.936 267.566 504.324 268.948L505.204 268.701ZM502.211 264.449L502.79 263.741C501.051 262.321 498.763 261.66 496.025 261.66V262.575V263.489C498.475 263.489 500.311 264.078 501.632 265.158L502.211 264.449ZM496.025 262.575V261.66C493.578 261.66 491.391 262.247 489.498 263.448L489.988 264.22L490.478 264.993C492.044 263.999 493.882 263.489 496.025 263.489V262.575ZM489.988 264.22L489.499 263.447C487.63 264.628 486.181 266.295 485.149 268.415L485.972 268.815L486.794 269.216C487.691 267.374 488.92 265.977 490.476 264.994L489.988 264.22ZM485.972 268.815L485.148 268.418C484.128 270.532 483.635 272.982 483.635 275.742H484.55H485.464C485.464 273.199 485.919 271.031 486.796 269.213L485.972 268.815ZM484.55 275.742H483.635C483.635 278.559 484.118 281.057 485.117 283.213L485.947 282.829L486.777 282.445C485.912 280.577 485.464 278.351 485.464 275.742H484.55ZM485.947 282.829L485.119 283.219C486.133 285.37 487.571 287.069 489.44 288.282L489.938 287.515L490.436 286.748C488.879 285.737 487.656 284.311 486.774 282.439L485.947 282.829ZM489.938 287.515L489.443 288.285C491.339 289.504 493.545 290.099 496.025 290.099V289.184V288.269C493.848 288.269 491.996 287.751 490.433 286.746L489.938 287.515ZM496.025 289.184V290.099C497.652 290.099 499.156 289.839 500.524 289.305L500.19 288.453L499.857 287.601C498.73 288.041 497.457 288.269 496.025 288.269V289.184ZM500.19 288.453L500.524 289.305C501.888 288.771 503.06 287.997 504.023 286.978L503.358 286.349L502.694 285.721C501.928 286.531 500.987 287.159 499.857 287.601L500.19 288.453ZM503.358 286.349L504.023 286.978C504.995 285.951 505.68 284.722 506.084 283.309L505.204 283.058L504.325 282.806C503.997 283.954 503.452 284.919 502.694 285.721L503.358 286.349ZM505.204 283.058V283.972H511.092V283.058V282.143H505.204V283.058ZM511.092 283.058L510.188 282.913C509.881 284.829 509.122 286.551 507.904 288.091L508.622 288.658L509.339 289.226C510.749 287.443 511.637 285.431 511.995 283.202L511.092 283.058ZM508.622 288.658L507.903 288.092C506.707 289.61 505.109 290.835 503.08 291.758L503.458 292.59L503.837 293.423C506.098 292.395 507.942 290.999 509.34 289.225L508.622 288.658ZM503.458 292.59L503.082 291.757C501.094 292.653 498.749 293.116 496.025 293.116V294.031V294.945C498.955 294.945 501.565 294.448 503.834 293.424L503.458 292.59ZM536.361 258.185H535.446V262.757H536.361H537.276V258.185H536.361ZM536.361 262.757V261.843H516.505V262.757V263.672H536.361V262.757ZM516.505 262.757H517.419V258.185H516.505H515.59V262.757H516.505ZM516.505 258.185V259.1H536.361V258.185V257.271H516.505V258.185ZM522.292 249.773V250.687H528.179V249.773V248.858H522.292V249.773ZM528.179 249.773H527.264V283.24H528.179H529.094V249.773H528.179ZM528.179 283.24H527.264C527.264 284.831 527.511 286.181 528.13 287.159L528.902 286.669L529.675 286.18C529.33 285.634 529.094 284.697 529.094 283.24H528.179ZM528.902 286.669L528.142 287.178C528.74 288.072 529.528 288.714 530.505 289.045L530.798 288.178L531.092 287.312C530.539 287.125 530.063 286.76 529.663 286.161L528.902 286.669ZM530.798 288.178L530.526 289.051C531.401 289.324 532.316 289.459 533.268 289.459V288.544V287.629C532.49 287.629 531.759 287.52 531.071 287.305L530.798 288.178ZM533.268 288.544V289.459C533.94 289.459 534.521 289.428 534.997 289.358L534.864 288.453L534.732 287.548C534.377 287.6 533.893 287.629 533.268 287.629V288.544ZM534.864 288.453L535.029 289.352C535.445 289.276 535.777 289.215 536.027 289.169L535.862 288.27L535.697 287.37C535.448 287.416 535.115 287.477 534.699 287.553L534.864 288.453ZM535.862 288.27L534.974 288.489L536.172 293.336L537.06 293.116L537.948 292.897L536.75 288.05L535.862 288.27ZM537.06 293.116L536.762 292.251C536.423 292.368 535.914 292.495 535.216 292.629L535.388 293.528L535.561 294.426C536.292 294.286 536.898 294.139 537.357 293.981L537.06 293.116ZM535.388 293.528L535.198 292.633C534.568 292.767 533.731 292.842 532.669 292.842V293.756V294.671C533.802 294.671 534.778 294.593 535.579 294.422L535.388 293.528ZM532.669 293.756V292.842C531.13 292.842 529.618 292.539 528.127 291.927L527.78 292.773L527.433 293.619C529.135 294.318 530.883 294.671 532.669 294.671V293.756ZM527.78 292.773L528.13 291.928C526.695 291.333 525.51 290.432 524.559 289.215L523.839 289.779L523.118 290.342C524.263 291.808 525.705 292.903 527.429 293.618L527.78 292.773ZM523.839 289.779L524.564 289.221C523.679 288.071 523.207 286.587 523.207 284.703H522.292H521.377C521.377 286.904 521.936 288.804 523.113 290.336L523.839 289.779ZM522.292 284.703H523.207V249.773H522.292H521.377V284.703H522.292Z" fill="#0B2641"/>
</svg>
