<svg width="800" height="800" viewBox="0 0 800 800" fill="none" xmlns="http://www.w3.org/2000/svg">
<g clip-path="url(#clip0_53_39)">
<path fill-rule="evenodd" clip-rule="evenodd" d="M440.002 40.0693V559.972H759.922C791.602 559.972 810.682 524.971 793.602 498.331L513.643 18.4287C492.043 -15.1313 440.002 0.149312 440.002 40.0693ZM286.722 269.894L121.442 497.784C103.722 524.384 122.803 559.972 154.763 559.972H360.002V292.101C360.002 252.541 308.682 236.974 286.722 269.894ZM795.722 697.862L755.722 777.862C748.962 791.422 735.082 799.972 719.962 799.972H100.082C87.4824 799.972 75.6423 794.056 68.0823 783.976L8.08228 703.976C-11.7177 677.616 7.1224 639.972 40.0824 639.972H759.962C789.682 639.972 809.042 671.302 795.722 697.862Z" fill="#0B2641"/>
</g>
<defs>
<clipPath id="clip0_53_39">
<rect width="800" height="800" fill="white"/>
</clipPath>
</defs>
</svg>
