<svg width="800" height="800" viewBox="0 0 800 800" fill="none" xmlns="http://www.w3.org/2000/svg">
<path d="M720.99 488.693L707.323 550.693C683.657 657.36 599.99 733.36 479.323 733.36H320.658C199.991 733.36 116.325 657.36 92.658 550.693L78.9914 488.693C72.3247 458.36 90.3247 424.027 119.325 412.36L166.658 393.36L350.323 319.693C366.323 313.359 383.323 310.026 399.99 310.026C416.657 310.026 433.657 313.359 449.657 319.693L633.323 393.36L680.657 412.36C709.657 424.027 727.657 458.36 720.99 488.693Z" fill="#0B2641"/>
<path d="M633.333 266.667V314.667C633.333 326.333 621.333 334.667 610.333 330L468 273C424.333 256 375.667 256 331.667 273.333L189.667 330.333C178.667 335 166.667 326.667 166.667 315V266.667C166.667 211.667 211.667 166.667 266.667 166.667H533.333C588.333 166.667 633.333 211.667 633.333 266.667Z" fill="#0B2641"/>
<path d="M483.333 166.667H316.667V100C316.667 81.6666 331.667 66.6666 350 66.6666H450C468.333 66.6666 483.333 81.6666 483.333 100V166.667Z" fill="#0B2641"/>
</svg>
